<svg xmlns="http://www.w3.org/2000/svg" xmlns:xlink="http://www.w3.org/1999/xlink" viewBox="0 0 100 100" enable-background="new 0 0 100 100"><g><radialGradient id="a" cx="50.363" cy="42.883" r="27.172" gradientTransform="matrix(1 0 0 4 0 -128.65)" gradientUnits="userSpaceOnUse"><stop offset="0" stop-color="#D8D8D8"/><stop offset="1" stop-color="#A1A1A1"/></radialGradient><circle fill="url(#a)" cx="50.4" cy="42.9" r="27.2"/><radialGradient id="b" cx="50.363" cy="42.715" r="15.273" gradientTransform="matrix(1 0 0 4 0 -128.145)" gradientUnits="userSpaceOnUse"><stop offset="0" stop-color="#5F5F5F"/><stop offset="1" stop-color="#5F5F5F"/></radialGradient><circle fill="url(#b)" cx="50.4" cy="42.7" r="15.3"/><image overflow="visible" opacity=".3" width="160" height="160" xlink:href="85064C2D24C0542F.png" transform="matrix(.24 0 0 .24 31.164 23.348)"/><radialGradient id="c" cx="50.363" cy="42.547" r="16.199" gradientTransform="matrix(1 0 0 4 0 -127.641)" gradientUnits="userSpaceOnUse"><stop offset="0" stop-color="#A1A1A1"/><stop offset="1" stop-color="#808080"/></radialGradient><path fill="url(#c)" d="M50.4 26.3c-8.9 0-16.2 7.3-16.2 16.2 0 8.9 7.3 16.2 16.2 16.2s16.2-7.3 16.2-16.2c0-8.9-7.3-16.2-16.2-16.2zm0 30c-7.6 0-13.8-6.2-13.8-13.8 0-7.6 6.2-13.8 13.8-13.8 7.6 0 13.8 6.2 13.8 13.8 0 7.7-6.2 13.8-13.8 13.8z"/><image overflow="visible" opacity=".3" width="52" height="52" xlink:href="85064C2D24C0542D.png" transform="matrix(.24 0 0 .24 49.587 32.272)"/><circle fill="#D0D2D3" cx="55.7" cy="38.4" r="3.1"/><linearGradient id="d" gradientUnits="userSpaceOnUse" x1="49.999" y1="84.223" x2="50.003" y2="60.618"><stop offset="0" stop-color="#979797"/><stop offset=".537" stop-color="#C3C3C3"/><stop offset="1" stop-color="#A1A1A1"/></linearGradient><path fill="url(#d)" d="M77.8 75.8l-4.2-4.5c-1.2-1.3-3.7-2.3-6.1-2.3-.8 0-1.5.1-2.2.3-1.1.3-2.7.7-4.5 1.4-3.5 1.3-7.1 2-10.7 2.1-3.6-.1-7.2-.9-10.7-2.1-1.8-.7-3.4-1.1-4.5-1.4-.7-.2-1.5-.3-2.2-.3-2.4 0-4.9.9-6.1 2.3l-4.2 4.5c-1.5 1.7-1.4 3.7-.7 4.7 1 1.8 3.1 3.8 5.8 3.8h45.2c2.8 0 4.9-2 5.8-3.8.4-1 .8-3-.7-4.7z"/></g></svg>