<svg xmlns="http://www.w3.org/2000/svg" xmlns:xlink="http://www.w3.org/1999/xlink" viewBox="0 0 100 100" enable-background="new 0 0 100 100"><g><g enable-background="new"><defs><path id="a" d="M16.3 23.3h66.2v51.8h-66.2z"/></defs><clipPath id="b"><use xlink:href="#a" overflow="visible"/></clipPath><g clip-path="url(#b)"><defs><path id="c" d="M31.7 23.4h37v20.1h-37z"/></defs><clipPath id="d"><use xlink:href="#c" overflow="visible"/></clipPath><g clip-path="url(#d)"><defs><path id="e" d="M-29.7-22.7h135.2v149.6h-135.2z"/></defs><clipPath id="f"><use xlink:href="#e" overflow="visible"/></clipPath><path clip-path="url(#f)" fill="#E9E9E9" d="M17.4 9h65.7v48.9h-65.7z"/></g></g><g clip-path="url(#b)"><defs><path id="g" d="M25.9 67.1c-1.4 0-2.5-1.1-2.5-2.5s1.1-2.5 2.5-2.5 2.5 1.1 2.5 2.5c0 1.3-1.1 2.5-2.5 2.5zm50.6-26.9h-2.1v9.6h-48.4v-9.6h-2.1c-3.1 0-5.6 2.4-5.6 5.4v21.1c0 3 2.5 5.4 5.6 5.4h52.7c3.1 0 5.6-2.4 5.6-5.4v-21.1c-.1-3-2.6-5.4-5.7-5.4z"/></defs><clipPath id="h"><use xlink:href="#g" overflow="visible"/></clipPath><g clip-path="url(#h)"><defs><path id="i" d="M-29.7-22.7h135.2v149.6h-135.2z"/></defs><clipPath id="j"><use xlink:href="#i" overflow="visible"/></clipPath><path clip-path="url(#j)" fill="#E9E9E9" d="M3.9 25.8h92.6v60.7h-92.6z"/></g></g><g clip-path="url(#b)"><defs><path id="k" d="M26.7 68.7h6.7v5h-6.7z"/></defs><clipPath id="l"><use xlink:href="#k" overflow="visible"/></clipPath><g clip-path="url(#l)"><defs><path id="m" d="M-29.7-22.7h135.2v149.6h-135.2z"/></defs><clipPath id="n"><use xlink:href="#m" overflow="visible"/></clipPath><path clip-path="url(#n)" fill="#E9E9E9" d="M12.3 54.4h35.5v33.8h-35.5z"/></g></g></g><defs><path id="o" d="M-603.3-1326.2h1280v2612h-1280z"/></defs><clipPath><use xlink:href="#o" overflow="visible"/></clipPath></g></svg>