<svg xmlns="http://www.w3.org/2000/svg" xmlns:xlink="http://www.w3.org/1999/xlink" viewBox="0 0 100 100" enable-background="new 0 0 100 100"><g><defs><path id="a" d="M-377.3-1326.8h1280v2612h-1280z"/></defs><clipPath><use xlink:href="#a" overflow="visible"/></clipPath><g enable-background="new"><defs><path id="b" d="M41.6 32.5l-9-12.8 2.2-1.6s1-.1 1.4.5c.4.6 7.3 10.4 7.3 10.4s.6.9 0 1.4c-.3.3-1.9 2.1-1.9 2.1z"/></defs><use xlink:href="#b" overflow="visible" fill-rule="evenodd" clip-rule="evenodd" fill="#E9E9E9"/><clipPath id="c"><use xlink:href="#b" overflow="visible"/></clipPath><g clip-path="url(#c)"><defs><path id="d" d="M2.9-3h87.3v114.2h-87.3z"/></defs><use xlink:href="#d" overflow="visible" fill="#E9E9E9"/><clipPath id="e"><use xlink:href="#d" overflow="visible"/></clipPath><path clip-path="url(#e)" fill="#E9E9E9" d="M67.928 34.595l-30.474 21.338-28.278-40.387 30.474-21.338z"/></g><defs><path id="f" d="M53.9 78.3c10.9 6.3 13.8 3.3 13.8 3.3l4.3-3-9.1-12.9s-7.9 5.2-10.2 3.7l-19-27.3c-.6-2.6 6.8-8.3 6.8-8.3l-9.1-12.9-4.3 3s-3.6 1.7-1.5 14.2c3.5 21.9 21.8 36.4 28.3 40.2z"/></defs><use xlink:href="#f" overflow="visible" fill-rule="evenodd" clip-rule="evenodd" fill="#E9E9E9"/><clipPath id="g"><use xlink:href="#f" overflow="visible"/></clipPath><g clip-path="url(#g)"><defs><path id="h" d="M1.8-2h87.3v114.2h-87.3z"/></defs><use xlink:href="#h" overflow="visible" fill="#E9E9E9"/><clipPath id="i"><use xlink:href="#h" overflow="visible"/></clipPath><path clip-path="url(#i)" fill="#E9E9E9" d="M95.338 82.649l-43.827 30.688-59.712-85.279 43.827-30.688z"/></g><defs><path id="j" d="M64.1 64.6l9 12.8 2.3-1.6s.4-.9 0-1.5-7-9.9-7-9.9-1-1.2-1.7-.9c-.4.2-2.6 1.1-2.6 1.1z"/></defs><use xlink:href="#j" overflow="visible" fill-rule="evenodd" clip-rule="evenodd" fill="#E9E9E9"/><clipPath id="k"><use xlink:href="#j" overflow="visible"/></clipPath><g clip-path="url(#k)"><defs><path id="l" d="M2.9-3h87.3v114.2h-87.3z"/></defs><use xlink:href="#l" overflow="visible" fill="#E9E9E9"/><clipPath id="m"><use xlink:href="#l" overflow="visible"/></clipPath><path clip-path="url(#m)" fill="#E9E9E9" d="M99.429 79.458l-30.474 21.338-28.278-40.387 30.474-21.338z"/></g></g></g></svg>