<svg xmlns="http://www.w3.org/2000/svg" viewBox="0 0 100 100" enable-background="new 0 0 100 100"><g fill="#E9E9E9"><path d="M39.1 52.1c-.9 2.1-1.4 4.6-1.5 7.2-.4 9.2 2.4 17.7 6 26l.9 2.1c.3.6 0 .8-.5.8h-20.799999999999997c-1.7 0-1.7 0-1.5-1.7.8-6 1.9-12 3.7-17.9 1.7-5.5 3.9-10.9 7.4-15.5 2.7-3.5 5.8-6.4 10.2-7.6l.3-.1h1.6c-.3.4-.5.8-.8 1.1-2 2.2-3.1 4.9-3.6 7.8-.8 5.4.5 10.4 2.2 15.4 2 5.9 4.9 11.4 8.2 16.7l.7 1.1c.3.5.1.7-.4.7-1.2 0-2.4.1-3.6 0-.4 0-.9-.5-1.2-1-2.7-4.8-4.9-9.9-6.5-15.2-1.3-4.3-2.2-8.7-1.9-13.2.3-2.4.8-4.7 1.1-6.7M68.8 45.8c1.9-1.9 3.8-3.7 5.6-5.6.4-.4.7-.6 1.2 0 1.6 2.1 3.3 4.2 4.9 6.2l-1.4 1.6-8.7 8.5-7.9 7.9M67.2 47.5M63.3 51.3M62.5 64.5c-.7-.4-1.4-.8-2-1.3l-4.1-3.4c-.6-.4-.8-.8-.1-1.4 1.8-1.8 10.8-10.7 12.5-12.5M70.4 56.6l8.7-8.5 1.4-1.6c1.1 1.3 2.2 2.5 3.2 3.8.7 1 .5 2-.5 3.1l-3.6 3.6c-3.4 3.4-6.8 6.7-10.1 10-1.6 1.6-2.6 1.7-4.3.1l-2.8-2.6"/><path d="M57.9 38.9c0 .8.1 1.5 0 2.3-.2.8-.5 1.7-1 2.3l-8.3 8.4c-.6.6-1 .6-1.6.1l-2.5-2.1c-.5-.4-.6-.8-.1-1.3l12.6-12.6c.2-.2.4-.2.7-.4.1.2.2.5.2.7v2.6zM62.3 46.4"/><path d="M62.5 41.2c1.5-.1 2.5 1 3 1.9.7 1.4-.1 3.3-1.2 4.3-1.3 1-3.1 1.2-4.5.3-1.4-.8-2.3-2.4-1.8-4 1-3.4.4-6.8.5-10.1.1-3.7.1-7.5 0-11.2 0-1 .3-1.3 1.3-1.3 1.1 0 1.4.3 1.4 1.4v18.1c0 .8 0-.4.1 1-.1.1.4-.3 1.2-.4zM60.2 43.7m1.5-2.6c0-.5.5-1 .8-1.3 2.1-2.2 4.3-4.4 6.5-6.6.4-.5.8-.7 1.3 0 1.1 1.5 2.3 3 3.5 4.4.5.6.4.9-.1 1.4l-7.7 7.7c-.1.1-.4.2-.5.2 0-.2 0-.4.1-.6.9-1.4.7-3.1-.1-4.3-.4-.5-1-1.1-2.4-1.3-.5 0-1.4.4-1.4.4zM57.2 45.2c.2.3.3.6.4.8.9 1.9 2.4 2.9 4.5 2.7.5 0 1-.3 1.5-.4.3-.1.5-.2.8-.2-.1.2-.3.5-.5.6l-8.5 8.4c-.7.8-1.2.9-2.1.1-1.2-1.2-2.6-2.2-4-3.3-.4-.3-.5-.6-.1-1 2.5-2.4 4.9-4.9 7.3-7.3.3-.1.5-.2.7-.4M62.8 13.7c.1 2.1.1 4.2-.8 6.2-.4.8-.7 1.3-1.6 1.1-.3-.1-.7 0-1 0-1 .1-1.4-.3-1.8-1.2-1.1-2.3-.9-4.6-.9-7 0-1.2.2-2.3.3-3.5 1.1-.1 2.2-.2 3.4-.2 2.7 0 2.5-.5 2.5 2.5-.1.8-.1 1.4-.1 2.1M65.3 27.8l.6.5c.8.9 1.5 1.9 2.2 2.8.5.6.3.9-.1 1.3-1.9 1.8-3.7 3.7-5.5 5.5-.2.2-.4.3-.6.4-.1-.2-.2-.5-.2-.7v-5.5c0-.4.3-.9.6-1.3.8-.9 1.7-1.7 2.5-2.5.1-.2.3-.3.5-.5"/></g></svg>