<svg xmlns="http://www.w3.org/2000/svg" xmlns:xlink="http://www.w3.org/1999/xlink" viewBox="0 0 100 100" enable-background="new 0 0 100 100"><g><g enable-background="new"><defs><path id="a" d="M131.6 23h66.2v51.8h-66.2z"/></defs><clipPath id="b"><use xlink:href="#a" overflow="visible"/></clipPath><g clip-path="url(#b)"><defs><path id="c" d="M147 23.2h37v20.1h-37z"/></defs><clipPath id="d"><use xlink:href="#c" overflow="visible"/></clipPath><g clip-path="url(#d)"><defs><path id="e" d="M85.5-23h135.2v149.6h-135.2z"/></defs><clipPath><use xlink:href="#e" overflow="visible"/></clipPath></g></g><g clip-path="url(#b)"><defs><path id="f" d="M141.1 66.8c-1.4 0-2.5-1.1-2.5-2.5s1.1-2.5 2.5-2.5 2.5 1.1 2.5 2.5-1.1 2.5-2.5 2.5zm50.7-26.8h-2.1v9.6h-48.4v-9.6h-2.1c-3.1 0-5.6 2.4-5.6 5.4v21.1c0 3 2.5 5.4 5.6 5.4h52.7c3.1 0 5.6-2.4 5.6-5.4v-21.1c-.1-3-2.6-5.4-5.7-5.4z"/></defs><clipPath id="g"><use xlink:href="#f" overflow="visible"/></clipPath><g clip-path="url(#g)"><defs><path id="h" d="M85.5-23h135.2v149.6h-135.2z"/></defs><clipPath><use xlink:href="#h" overflow="visible"/></clipPath></g></g><g clip-path="url(#b)"><defs><path id="i" d="M141.9 68.5h6.7v5h-6.7z"/></defs><clipPath id="j"><use xlink:href="#i" overflow="visible"/></clipPath><g clip-path="url(#j)"><defs><path id="k" d="M85.5-23h135.2v149.6h-135.2z"/></defs><clipPath><use xlink:href="#k" overflow="visible"/></clipPath></g></g></g><g enable-background="new"><defs><path id="l" d="M18 27.2h63.9v45.7h-63.9z"/></defs><clipPath id="m"><use xlink:href="#l" overflow="visible"/></clipPath><g clip-path="url(#m)"><defs><path id="n" d="M45 56c2.4 2.2 6.2 2.2 8.6 0l25.8-23.4c.1-.1.1.1.2.1-.3-2.1-2.2-3.5-4.6-3.5h-51.3c-2.4 0-4.3 1.4-4.6 3.5.1.1.1 0 .2 0l25.7 23.3z"/></defs><clipPath id="o"><use xlink:href="#n" overflow="visible"/></clipPath><g clip-path="url(#o)"><defs><path id="p" d="M5.9 8.9h88.3v82.2h-88.3z"/></defs><clipPath id="q"><use xlink:href="#p" overflow="visible"/></clipPath><path clip-path="url(#q)" fill="#E9E9E9" d="M3.8 14h90.9v58.9h-90.9z"/></g></g><g clip-path="url(#m)"><defs><path id="r" d="M76.1 40.3l-22.5 22.5c-2.4 2.4-6.2 2.4-8.6 0l-22.5-22.5c-1.1-.5-2.7-.8-3.4.6v25.7c0 2.6 2.1 5.3 4.6 5.3h51.1c2.6 0 4.6-2.7 4.6-5.3v-25.7c-.6-1.4-2.2-1.1-3.3-.6z"/></defs><clipPath id="s"><use xlink:href="#r" overflow="visible"/></clipPath><g clip-path="url(#s)"><defs><path id="t" d="M5.9 8.9h88.3v82.2h-88.3z"/></defs><clipPath id="u"><use xlink:href="#t" overflow="visible"/></clipPath><path clip-path="url(#u)" fill="#E9E9E9" d="M3.8 24.6h90.9v62.4h-90.9z"/></g></g></g><defs><path id="v" d="M-488-1326.5h1280v2612h-1280z"/></defs><clipPath><use xlink:href="#v" overflow="visible"/></clipPath></g></svg>