<svg xmlns="http://www.w3.org/2000/svg" viewBox="0 0 100 100" enable-background="new 0 0 100 100"><g fill="#E9E9E9"><path d="M29.6 32.9c-.3 1.9-.5 3.9-.5 5.9 0 14.8 8.5 27.7 20.9 34.2 12.4-6.5 20.9-19.4 20.9-34.2 0-2-.2-4-.5-5.9 0 0-14.3-1.9-20.5-7.2-5.6 5.5-20.3 7.2-20.3 7.2zM81.8 24.1s-22.3-2.9-31.8-11.4c-8.8 8.7-31.7 11.4-31.7 11.4-.5 3.1-.7 6.2-.7 9.3 0 23.4 13.2 43.7 32.5 53.9 19.3-10.2 32.5-30.5 32.5-53.9-.1-3.2-.4-6.3-.8-9.3zm-31.9 54.4c-14.6-7.8-24.5-23.4-24.5-41.3 0-2.4.2-4.8.6-7.1 0 0 17.2-2 23.9-8.7 7.2 6.5 24 8.7 24 8.7.3 2.3.5 4.7.5 7.1 0 17.9-9.9 33.5-24.5 41.3z"/></g></svg>