<svg xmlns="http://www.w3.org/2000/svg" xmlns:xlink="http://www.w3.org/1999/xlink" viewBox="0 0 100 100" enable-background="new 0 0 100 100"><g><linearGradient id="a" gradientUnits="userSpaceOnUse" x1="82.5" y1="50" x2="17.5" y2="50"><stop offset="0" stop-color="#A1A1A1"/><stop offset="1" stop-color="#808080"/></linearGradient><path fill="url(#a)" d="M18.2 24.1c-.5 3.1-.7 6.2-.7 9.3 0 23.4 13.2 43.7 32.5 53.9 19.3-10.2 32.5-30.5 32.5-53.9 0-3.2-.3-6.3-.7-9.3 0 0-22.3-2.9-31.8-11.4-8.9 8.7-31.8 11.4-31.8 11.4z"/><image overflow="visible" opacity=".3" width="284" height="324" xlink:href="54B85C16084CF88.png" transform="matrix(.24 0 0 .24 16 11.152)"/><linearGradient id="b" gradientUnits="userSpaceOnUse" x1="82.5" y1="50" x2="17.5" y2="50"><stop offset="0" stop-color="#D8D8D8"/><stop offset="1" stop-color="#A8A8A8"/></linearGradient><path fill="url(#b)" d="M81.8 24.1s-22.3-2.9-31.8-11.4c-8.8 8.7-31.7 11.4-31.7 11.4-.5 3.1-.7 6.2-.7 9.3 0 23.4 13.2 43.7 32.5 53.9 19.3-10.2 32.5-30.5 32.5-53.9-.1-3.2-.4-6.3-.8-9.3zm-31.9 54.4c-14.6-7.8-24.5-23.4-24.5-41.3 0-2.4.2-4.8.6-7.1 0 0 17.2-2 23.9-8.7 7.2 6.5 24 8.7 24 8.7.3 2.3.5 4.7.5 7.1 0 17.9-9.9 33.5-24.5 41.3z"/></g></svg>