<svg xmlns="http://www.w3.org/2000/svg" viewBox="0 0 100 100" enable-background="new 0 0 100 100"><g><ellipse fill="#E9E9E9" cx="50" cy="21.5" rx="31.6" ry="5.2"/><linearGradient id="a" gradientUnits="userSpaceOnUse" x1="18.416" y1="23.544" x2="18.416" y2="23.544"><stop offset="0" stop-color="#D8D8D8"/><stop offset="1" stop-color="#A8A8A8"/></linearGradient><path fill="url(#a)" d="M18.4 23.5z"/><path fill="#E9E9E9" d="M81.6 23.5c0 2.9-14.1 5.2-31.6 5.2s-31.6-2.3-31.6-5.2v16.4c0 2.9 14.1 5.2 31.6 5.2s31.6-2.3 31.6-5.2v-16.4z"/><linearGradient id="b" gradientUnits="userSpaceOnUse" x1="18.416" y1="41.703" x2="18.416" y2="41.703"><stop offset="0" stop-color="#D8D8D8"/><stop offset="1" stop-color="#A8A8A8"/></linearGradient><path fill="url(#b)" d="M18.4 41.7z"/><path fill="#E9E9E9" d="M81.6 41.7c0 2.9-14.1 5.2-31.6 5.2s-31.6-2.3-31.6-5.2v16.4c0 2.9 14.1 5.2 31.6 5.2s31.6-2.3 31.6-5.2v-16.4z"/><linearGradient id="c" gradientUnits="userSpaceOnUse" x1="18.416" y1="60.091" x2="18.416" y2="60.091"><stop offset="0" stop-color="#D8D8D8"/><stop offset="1" stop-color="#A8A8A8"/></linearGradient><path fill="url(#c)" d="M18.4 60.1z"/><path fill="#E9E9E9" d="M81.6 60.1c0 2.9-14.1 5.2-31.6 5.2s-31.6-2.3-31.6-5.2v16.4c0 2.9 14.1 5.2 31.6 5.2s31.6-2.3 31.6-5.2v-16.4z"/></g></svg>