<svg xmlns="http://www.w3.org/2000/svg" viewBox="0 0 100 100" enable-background="new 0 0 100 100"><path fill="#E9E9E9" d="M43.6 62.9l9.8 6.9-12.2 8 2.4-14.9zm7-21.8l-4 3 .7-4.3 3.3 1.3zm-3.3 36.7l9.4-6.2 1 6.2h-10.4zm7.1-21.4l1.8 11.1-9.5-6.6 7.7-4.5zm-2.8-2.3l-7.3 4.2 1.3-8.3 6 4.1zm2-2.7l-5.8-3.9 4.6-3.5 1.2 7.4zm16.2 10.1h-3.8c-.5 0-.8.3-.8.7v15.6h-3.7l-4.8-30.4-.7-4.3 13.9 5.2v13.2zm11.3 16.3h-3.4v-15.6c0-.4-.4-.7-.8-.7h-3.9v-12l.4.1c.2.1.4.1.6.1.6 0 1.3-.3 1.5-.9l2.3-5.1c.2-.4.2-.8 0-1.1-.2-.4-.5-.7-.9-.8l-35.3-13.3c1.3-2.2 2.5-4.5 3.5-6.8.3-.8-.1-1.6-.9-1.9l-14-5.3c-.8-.3-1.8 0-2.1.8-3.5 7.4-5.7 15.6-7 25.9-.1.7.3 1.3 1 1.6l6 2.3c.7.3 1.5.1 1.9-.5 2.6-3 4.8-5.8 6.9-8.6l7.1 2.7-.3 2.2-1.1 6.6-4.8 30.4h-19.8c-.9 0-1.6.7-1.6 1.5v6.8c0 .8.7 1.5 1.6 1.5h63.1c.9 0 1.6-.7 1.6-1.5v-6.8c0-.9-.7-1.6-1.6-1.6"/></svg>