<svg xmlns="http://www.w3.org/2000/svg" viewBox="0 0 100 100" enable-background="new 0 0 100 100"><g fill="#E9E9E9"><path d="M50.4 15.7c-15 0-27.2 12.2-27.2 27.2s12.2 27.2 27.2 27.2 27.2-12.2 27.2-27.2-12.2-27.2-27.2-27.2zm.1 43.2c-8.9 0-16.1-7.2-16.1-16.1s7.2-16.1 16.1-16.1 16.1 7.2 16.1 16.1-7.2 16.1-16.1 16.1zM77.8 75.8l-4.2-4.5c-1.2-1.3-3.7-2.3-6.1-2.3-.8 0-1.5.1-2.2.3-1.1.3-2.7.7-4.5 1.4-3.5 1.3-7.1 2-10.7 2.1-3.6-.1-7.2-.9-10.7-2.1-1.8-.7-3.4-1.1-4.5-1.4-.7-.2-1.5-.3-2.2-.3-2.4 0-4.9.9-6.1 2.3l-4.2 4.5c-1.5 1.7-1.4 3.7-.7 4.7 1 1.8 3.1 3.8 5.8 3.8h45.2c2.8 0 4.9-2 5.8-3.8.4-1 .8-3-.7-4.7zM50.6 29.3c-7.4 0-13.3 6-13.3 13.3 0 7.4 6 13.3 13.3 13.3s13.3-6 13.3-13.3c0-7.3-5.9-13.3-13.3-13.3zm5.1 12.2c-1.7 0-3.1-1.4-3.1-3.1 0-1.7 1.4-3.1 3.1-3.1s3.1 1.4 3.1 3.1c.1 1.7-1.3 3.1-3.1 3.1z"/></g></svg>