<svg xmlns="http://www.w3.org/2000/svg" xmlns:xlink="http://www.w3.org/1999/xlink" viewBox="0 0 100 100" enable-background="new 0 0 100 100"><g><radialGradient id="a" cx="50.326" cy="49.463" r="34.993" gradientUnits="userSpaceOnUse"><stop offset="0" stop-color="#A1A1A1"/><stop offset="1" stop-color="#808080"/></radialGradient><path fill="url(#a)" d="M21.4 70.5c-1.1-1.5-1.4-3.7-1.8-5.9-.2-1.6-.5-3.2-1-4.8-.5-1.5-1.2-2.9-1.9-4.3-1.1-2.1-2.1-4.1-2.1-6s1-3.9 2.1-6c.7-1.4 1.4-2.8 1.9-4.3.5-1.6.8-3.2 1-4.7.4-2.3.7-4.5 1.8-5.9 1.1-1.5 3.1-2.5 5.1-3.5 1.4-.7 2.9-1.5 4.2-2.4 1.3-.9 2.4-2.1 3.5-3.2 1.6-1.7 3.2-3.2 5-3.8 1.5-.5 3.7-.2 6.1.2 1.6.3 3.2.5 4.9.5 1.7 0 3.3-.3 4.9-.5 2.4-.4 4.6-.6 6.1-.2 1.8.6 3.4 2.2 5 3.8 1.1 1.1 2.2 2.3 3.5 3.2 1.3 1 2.8 1.7 4.2 2.4 2.1 1.1 4 2.1 5.1 3.6 1.1 1.5 1.4 3.6 1.8 5.9.2 1.6.5 3.2 1 4.7s1.2 2.9 1.9 4.3c1.1 2.1 2.1 4.1 2.1 6s-1 3.9-2.1 6c-.7 1.4-1.4 2.8-1.9 4.3-.5 1.6-.8 3.2-1 4.8-.4 2.3-.7 4.5-1.8 5.9-.9 1.4-2.8 2.4-4.9 3.4-1.4.7-2.9 1.5-4.2 2.4-1.3.9-2.4 2.1-3.5 3.2-1.7 1.7-3.2 3.2-5 3.8-1.5.5-3.7.2-6.1-.2-1.6-.3-3.2-.5-4.9-.5-1.7 0-3.3.3-4.9.5-2.4.4-4.6.6-6.1.2-1.8-.6-3.4-2.2-5-3.8-1.1-1.1-2.2-2.3-3.5-3.2-1.3-1-2.8-1.7-4.2-2.4-2.2-1-4.2-2-5.3-3.5z"/><image overflow="visible" opacity=".3" width="323" height="311" xlink:href="5A63204F0EADA3B.png" transform="matrix(.24 0 0 .24 11.606 12.211)"/><radialGradient id="b" cx="50.326" cy="49.463" r="34.993" gradientUnits="userSpaceOnUse"><stop offset="0" stop-color="#D8D8D8"/><stop offset="1" stop-color="#A8A8A8"/></radialGradient><path fill="url(#b)" d="M83.9 43.5c-.7-1.4-1.4-2.8-1.9-4.3-.5-1.6-.8-3.2-1-4.7-.4-2.3-.7-4.5-1.8-5.9-1.1-1.5-3.1-2.5-5.1-3.6-1.4-.7-2.9-1.5-4.2-2.4-1.3-.9-2.4-2.1-3.5-3.2-1.7-1.7-3.2-3.2-5-3.8-1.5-.5-3.7-.2-6.1.2-1.6.3-3.2.5-4.9.5-1.7 0-3.3-.3-4.9-.5-2.4-.4-4.6-.6-6.1-.2-1.8.6-3.4 2.2-5 3.8-1.1 1.1-2.2 2.3-3.5 3.2-1.3 1-2.8 1.7-4.2 2.4-2.1 1.1-4 2-5.1 3.5-1.1 1.5-1.4 3.6-1.8 5.9-.2 1.6-.5 3.2-1 4.7s-1.2 2.9-1.9 4.3c-1.1 2.1-2.1 4.1-2.1 6 0 1.9 1 3.9 2.1 6 .7 1.4 1.4 2.8 1.9 4.3.5 1.6.8 3.2 1 4.8.4 2.3.7 4.5 1.8 5.9 1.1 1.5 3.1 2.5 5.1 3.5 1.4.7 2.9 1.5 4.2 2.4 1.3.9 2.4 2.1 3.5 3.2 1.6 1.7 3.2 3.2 5 3.8 1.5.5 3.7.2 6.1-.2 1.6-.3 3.2-.5 4.9-.5 1.7 0 3.3.3 4.9.5 2.4.4 4.6.6 6.1.2 1.8-.6 3.4-2.2 5-3.8 1.1-1.1 2.2-2.3 3.5-3.2 1.3-1 2.8-1.7 4.2-2.4 2.1-1.1 4-2.1 5.1-3.6 1.1-1.5 1.4-3.6 1.8-5.9.2-1.6.5-3.2 1-4.8.5-1.5 1.2-2.9 1.9-4.3 1.1-2.1 2.1-4.1 2.1-6 0-1.8-1-3.8-2.1-5.8zm-4.7 11.1c-.6 1.2-1.2 2.4-1.7 3.7-.4 1.3-.7 2.7-.9 4.1-.3 2-.6 3.8-1.5 5.1-.9 1.3-2.6 2.1-4.4 3-1.2.6-2.5 1.2-3.6 2.1-1.1.8-2.1 1.8-3 2.8-1.4 1.4-2.8 2.8-4.3 3.3-1.3.4-3.2.2-5.3-.1-1.4-.2-2.8-.4-4.2-.4-1.4 0-2.9.2-4.2.4-2 .3-4 .6-5.3.1-1.5-.5-2.9-1.9-4.3-3.3-.9-1-1.9-1.9-3-2.8-1.1-.8-2.4-1.5-3.6-2.1-1.8-.9-3.5-1.8-4.4-3-.9-1.3-1.2-3.1-1.5-5.1-.2-1.3-.4-2.7-.9-4.1-.4-1.3-1-2.5-1.7-3.7-.9-1.8-1.8-3.5-1.8-5.2 0-1.7.9-3.4 1.8-5.2.6-1.2 1.2-2.4 1.7-3.7.4-1.3.7-2.7.9-4.1.3-2 .6-3.8 1.5-5.1.9-1.3 2.6-2.1 4.4-3 1.2-.6 2.5-1.2 3.6-2.1 1.1-.8 2.1-1.8 3-2.8 1.4-1.4 2.8-2.8 4.3-3.3 1.3-.4 3.2-.2 5.3.1 1.4.2 2.8.4 4.2.4 1.4 0 2.9-.2 4.2-.4 2-.3 4-.6 5.3-.1 1.5.5 2.9 1.9 4.3 3.3.9 1 1.9 1.9 3 2.8 1.1.8 2.4 1.5 3.6 2.1 1.8.9 3.5 1.8 4.4 3.1.9 1.3 1.2 3.1 1.5 5.1.2 1.3.4 2.7.9 4.1.4 1.3 1 2.5 1.7 3.7.9 1.8 1.8 3.5 1.8 5.2 0 1.6-.9 3.3-1.8 5.1z"/><image overflow="visible" opacity=".3" width="159" height="156" xlink:href="5A63204F0EADA39.png" transform="matrix(.24 0 0 .24 31.333 28.829)"/><path fill="#D8D8D8" d="M45.8 51.3c-.5-1-1.4-2.6-2.3-4v15.9h-4v-13.6c-.9 2.7-2 5.2-3.2 7-.4-1.1-1.4-2.9-2-3.9 1.8-2.4 3.6-6.8 4.4-10.5h-3.9v-3.7h4.7v-6.6h4v6.6h3.9v3.7h-3.9v.7c1 1.1 3.8 4.5 4.4 5.3l-2.1 3.1zm7.1-1.8c-.9 3.9-2.7 8-4.3 10.7-.7-.6-2.3-1.6-3.2-2.1 1.7-2.3 3.1-5.9 3.9-9.4l3.6.8zm5.6-3.9v12.9c0 2-.3 3.1-1.5 3.8-1.2.7-2.9.7-5.1.7-.1-1.2-.6-2.9-1.1-4.1 1.3.1 2.8 0 3.2 0 .4 0 .6-.1.6-.5v-12.8h-6.6v-3.7h18.1v3.7h-7.6zm5.6-8h-14.7v-3.7h14.8v3.7zm-1.2 11c1.5 3.4 3 7.7 3.4 10.4l-3.6 1.3c-.4-2.8-1.7-7.2-3.1-10.7l3.3-1z"/></g></svg>