<svg xmlns="http://www.w3.org/2000/svg" viewBox="0 0 100 100" enable-background="new 0 0 100 100"><g fill="#E9E9E9"><path d="M23.2 55.8s-3-5.3-4.7 1.9c0 0-3.9-.5-4.9 1.1-.9 1.6.6 7.4.6 7.4l2 4.2.4.1v-1.5l1.6.2-.2 1.7h.2l5-15.1zM42.6 31.2c-3 0-5.4-2.4-5.4-5.4 0-3 2.4-5.4 5.4-5.4 3 0 5.4 2.4 5.4 5.4-.1 3-2.5 5.4-5.4 5.4m34.1-2.3l-33.1-10.5c-3.5-1.1-7.3 1.2-8.5 5-1.2 3.9.6 7.9 4.1 9l33.1 10.6c3.5 1.1 7.3-1.2 8.5-5 1.2-3.9-.6-8-4.1-9.1M34.5 29.6l-13 17.4c-1.6 2.2-1.6 5 .1 6.2 1.7 1.3 4.4.5 6-1.7l13-17.3-2.1-.7c-1.9-.5-3.3-2-4-3.9M78.8 76.4h-5.2l4.4-10.6h5.2l-4.4 10.6zm-14.7 0l4.5-10.6h5.2l-4.5 10.6h-5.2zm-9.4 0l4.5-10.6h5.2l-4.4 10.6h-5.3zm26.8-37.8c-2.8 7.2-8.5 5.7-8.5 5.7l-5.5-1.9c-.6 3.9-.9 8.1-1.1 11.3-.6 10.6-4.6 10-12.3 14.6l-3.4 8h-3.8c-.5 3.1 1.3 5.4 1.3 5.4l37.4-.1c0-.9.2-2.8.5-5.4h-3l3.7-8.7c.1-8.5-.5-19.6-5.3-28.9"/></g></svg>