<svg xmlns="http://www.w3.org/2000/svg" xmlns:xlink="http://www.w3.org/1999/xlink" viewBox="0 0 100 100" enable-background="new 0 0 100 100"><g><defs><path id="a" d="M-259.6-1326.8h1280v2612h-1280z"/></defs><clipPath><use xlink:href="#a" overflow="visible"/></clipPath><defs><path id="b" d="M50 50.9c-6.3 0-11.5-5.1-11.5-11.5 0-6.3 5.2-11.4 11.5-11.4s11.5 5.1 11.5 11.5c0 6.3-5.2 11.4-11.5 11.4zm0-35.3c-13.2 0-23.8 10.4-23.8 23.3v.8c.1 2.4.6 4.8 1.4 7 5.1 16.4 22.4 37.7 22.4 37.7s17.3-21.3 22.4-37.6c.8-2.2 1.3-4.5 1.4-7v-.8c0-12.9-10.6-23.4-23.8-23.4z"/></defs><clipPath id="c"><use xlink:href="#b" overflow="visible"/></clipPath><path clip-path="url(#c)" fill="#E9E9E9" d="M11.1.5h77.8v99h-77.8z"/></g></svg>