<svg xmlns="http://www.w3.org/2000/svg" xmlns:xlink="http://www.w3.org/1999/xlink" viewBox="0 0 100 100" enable-background="new 0 0 100 100"><g><g enable-background="new"><defs><path id="a" d="M18 27.2h63.9v45.7h-63.9z"/></defs><clipPath id="b"><use xlink:href="#a" overflow="visible"/></clipPath><g clip-path="url(#b)"><defs><path id="c" d="M45 56c2.4 2.2 6.2 2.2 8.6 0l25.8-23.4c.1-.1.1.1.2.1-.3-2.1-2.2-3.5-4.6-3.5h-51.3c-2.4 0-4.3 1.4-4.6 3.5.1.1.1 0 .2 0l25.7 23.3z"/></defs><clipPath id="d"><use xlink:href="#c" overflow="visible"/></clipPath><g clip-path="url(#d)"><defs><path id="e" d="M5.9 8.9h88.3v82.2h-88.3z"/></defs><clipPath id="f"><use xlink:href="#e" overflow="visible"/></clipPath><path clip-path="url(#f)" fill="#F48446" d="M3.8 14h90.9v58.9h-90.9z"/></g></g><g clip-path="url(#b)"><defs><path id="g" d="M76.1 40.3l-22.5 22.5c-2.4 2.4-6.2 2.4-8.6 0l-22.5-22.5c-1.1-.5-2.7-.8-3.4.6v25.7c0 2.6 2.1 5.3 4.6 5.3h51.1c2.6 0 4.6-2.7 4.6-5.3v-25.7c-.6-1.4-2.2-1.1-3.3-.6z"/></defs><clipPath id="h"><use xlink:href="#g" overflow="visible"/></clipPath><g clip-path="url(#h)"><defs><path id="i" d="M5.9 8.9h88.3v82.2h-88.3z"/></defs><clipPath id="j"><use xlink:href="#i" overflow="visible"/></clipPath><path clip-path="url(#j)" fill="#F48446" d="M3.8 24.6h90.9v62.4h-90.9z"/></g></g></g><defs><path id="k" d="M-282.4-1534.3h1280v2612h-1280z"/></defs><clipPath id="l"><use xlink:href="#k" overflow="visible"/></clipPath><g clip-path="url(#l)"><defs><path id="m" d="M134.9 55.4h53.8v64.8h-53.8z"/></defs><clipPath id="n"><use xlink:href="#m" overflow="visible"/></clipPath><path clip-path="url(#n)" fill-rule="evenodd" clip-rule="evenodd" fill="#808080" d="M50.8 82.1c-2.1 0-3.8-1.7-3.8-3.8 0-2.1 1.7-3.8 3.8-3.8 2.1 0 3.8 1.7 3.8 3.8 0 2.1-1.7 3.8-3.8 3.8zm0-11.7c-4.4 0-7.9 3.4-7.9 7.7v.3c0 .8.2 1.6.5 2.3 1.7 5.4 7.4 12.5 7.4 12.5s5.7-7 7.4-12.5c.3-.7.4-1.5.5-2.3v-.3c0-4.2-3.6-7.7-7.9-7.7z"/></g></g></svg>