<svg xmlns="http://www.w3.org/2000/svg" xmlns:xlink="http://www.w3.org/1999/xlink" viewBox="0 0 100 100" enable-background="new 0 0 100 100"><g><linearGradient id="a" gradientUnits="userSpaceOnUse" x1="50.33" y1="55.849" x2="50.33" y2="26.237"><stop offset="0" stop-color="#E9E9E9"/><stop offset="1" stop-color="#D8D8D8"/></linearGradient><path fill="url(#a)" d="M90.3 55.8h-79.3c-1.1 0-1.7-1.2-1-2.1l19.6-25c1.1-1.4 2-2.5 4.3-2.5h32.1c2.3 0 3.2.9 4.4 2.3l20.4 26.2c.3.5 0 1.1-.5 1.1z"/><linearGradient id="b" gradientUnits="userSpaceOnUse" x1="50" y1="74.472" x2="50" y2="54.404"><stop offset="0" stop-color="#D1D1CA"/><stop offset=".37" stop-color="#DEDEDE"/><stop offset="1" stop-color="#ccc"/></linearGradient><path fill="url(#b)" d="M89.4 74.5h-78.8c-1.2 0-2.2-1-2.2-2.2v-15.7c0-1.2 1-2.2 2.2-2.2h78.9c1.2 0 2.2 1 2.2 2.2v15.7c-.1 1.2-1.1 2.2-2.3 2.2z"/><image overflow="visible" opacity=".75" width="140" height="140" xlink:href="937FF70C86049C88.png" transform="matrix(.24 0 0 .24 66.906 50.93)"/><radialGradient id="c" cx="82.677" cy="66.701" r="1.771" gradientUnits="userSpaceOnUse"><stop offset="0" stop-color="#5F5F5F"/><stop offset="1" stop-color="#5F5F5F"/></radialGradient><circle fill="url(#c)" cx="82.7" cy="66.7" r="1.8"/><radialGradient id="d" cx="75.886" cy="66.701" r="1.771" gradientUnits="userSpaceOnUse"><stop offset="0" stop-color="#5F5F5F"/><stop offset="1" stop-color="#5F5F5F"/></radialGradient><circle fill="url(#d)" cx="75.9" cy="66.7" r="1.8"/><radialGradient id="e" cx="69.344" cy="66.701" r="1.771" gradientUnits="userSpaceOnUse"><stop offset="0" stop-color="#5F5F5F"/><stop offset="1" stop-color="#5F5F5F"/></radialGradient><circle fill="url(#e)" cx="69.3" cy="66.7" r="1.8"/></g></svg>