<svg xmlns="http://www.w3.org/2000/svg" viewBox="0 0 100 100" enable-background="new 0 0 100 100"><g fill="#E9E9E9"><path d="M50 14.2c-19.8 0-35.8 16-35.8 35.8 0 19.8 16 35.8 35.8 35.8s35.8-16 35.8-35.8c0-19.8-16-35.8-35.8-35.8zm0 67.4c-17.5 0-31.6-14.2-31.6-31.6s14.1-31.6 31.6-31.6 31.6 14.1 31.6 31.6-14.1 31.6-31.6 31.6zM50 22.2c-15.1 0-27.4 12.3-27.4 27.4 0 15.1 12.3 27.4 27.4 27.4s27.4-12.3 27.4-27.4c0-15.2-12.3-27.4-27.4-27.4zm0 50.6c-12.8 0-23.2-10.4-23.2-23.2s10.4-23.2 23.2-23.2 23.2 10.4 23.2 23.2-10.4 23.2-23.2 23.2zM50 32.9c-9.3 0-16.9 7.6-16.9 16.9 0 9.3 7.6 16.9 16.9 16.9s16.9-7.6 16.9-16.9c0-9.3-7.6-16.9-16.9-16.9zm0 29.5c-7 0-12.6-5.7-12.6-12.6s5.6-12.7 12.6-12.7 12.6 5.7 12.6 12.6-5.6 12.7-12.6 12.7zM50.3 51.2l-2.2-1.9 21.8-25.4c.5-.6 1.5-.7 2.1-.2.6.5.7 1.5.2 2.1l-21.9 25.4z"/><circle cx="49.8" cy="49.4" r="3.8"/><circle cx="41.3" cy="27.6" r="4.3"/><circle cx="30" cy="68.6" r="4.3"/><circle cx="71.1" cy="57.5" r="4.3"/></g></svg>