<svg xmlns="http://www.w3.org/2000/svg" xmlns:xlink="http://www.w3.org/1999/xlink" viewBox="0 0 100 100" enable-background="new 0 0 100 100"><g><g enable-background="new"><defs><path id="a" d="M41.6 32.5l-9-12.8 2.2-1.6s1-.1 1.4.5c.4.6 7.3 10.4 7.3 10.4s.6.9 0 1.4c-.3.3-1.9 2.1-1.9 2.1z"/></defs><use xlink:href="#a" overflow="visible" fill-rule="evenodd" clip-rule="evenodd" fill="#F48446"/><clipPath id="b"><use xlink:href="#a" overflow="visible"/></clipPath><g clip-path="url(#b)"><defs><path id="c" d="M2.9-3h87.3v114.2h-87.3z"/></defs><use xlink:href="#c" overflow="visible" fill="#F48446"/><clipPath id="d"><use xlink:href="#c" overflow="visible"/></clipPath><path clip-path="url(#d)" fill="#F48446" d="M67.929 34.595l-30.474 21.338-28.278-40.387 30.474-21.338z"/></g><defs><path id="e" d="M53.9 78.3c10.9 6.3 13.8 3.3 13.8 3.3l4.3-3-9.1-12.9s-7.9 5.2-10.2 3.7l-19-27.3c-.6-2.6 6.8-8.3 6.8-8.3l-9.1-12.9-4.3 3s-3.6 1.7-1.5 14.2c3.5 21.9 21.8 36.4 28.3 40.2z"/></defs><use xlink:href="#e" overflow="visible" fill-rule="evenodd" clip-rule="evenodd" fill="#F48446"/><clipPath id="f"><use xlink:href="#e" overflow="visible"/></clipPath><g clip-path="url(#f)"><defs><path id="g" d="M1.8-2h87.3v114.2h-87.3z"/></defs><use xlink:href="#g" overflow="visible" fill="#F48446"/><clipPath id="h"><use xlink:href="#g" overflow="visible"/></clipPath><path clip-path="url(#h)" fill="#F48446" d="M95.338 82.649l-43.827 30.688-59.712-85.279 43.827-30.688z"/></g><defs><path id="i" d="M64.1 64.6l9 12.8 2.3-1.6s.4-.9 0-1.5-7-9.9-7-9.9-1-1.2-1.7-.9c-.4.2-2.6 1.1-2.6 1.1z"/></defs><use xlink:href="#i" overflow="visible" fill-rule="evenodd" clip-rule="evenodd" fill="#F48446"/><clipPath id="j"><use xlink:href="#i" overflow="visible"/></clipPath><g clip-path="url(#j)"><defs><path id="k" d="M2.9-3h87.3v114.2h-87.3z"/></defs><use xlink:href="#k" overflow="visible" fill="#F48446"/><clipPath id="l"><use xlink:href="#k" overflow="visible"/></clipPath><path clip-path="url(#l)" fill="#F48446" d="M99.429 79.458l-30.474 21.338-28.278-40.387 30.474-21.338z"/></g></g><defs><path id="m" d="M-162.4-1534.3h1280v2612h-1280z"/></defs><clipPath><use xlink:href="#m" overflow="visible"/></clipPath></g></svg>