<svg xmlns="http://www.w3.org/2000/svg" xmlns:xlink="http://www.w3.org/1999/xlink" viewBox="0 0 100 100" enable-background="new 0 0 100 100"><g><defs><path id="a" d="M-258.7-1440.3h1280v2612h-1280z"/></defs><clipPath><use xlink:href="#a" overflow="visible"/></clipPath><g fill="#E9E9E9"><path d="M64.6 38.6c-1.4.1-2.7.1-4 .2-7.3.9-13.3 4.1-17.3 10.4-2.7 4.3-3.3 9-1.9 13.9 0 .1.1.3.1.5-1.3 0-2.7.1-4 0-1.8-.2-3.7-.7-5.5-1-.3-.1-.6 0-.9.1-2.4 1.1-4.9 2.2-7.3 3.4-.2.1-.4.2-.7.3.2-.6.3-1.1.4-1.6.4-1.6.9-3.3 1.4-4.9.1-.4 0-.7-.3-.9-3.9-2.8-6.9-6.3-8.2-11-2.1-7.6.1-14.1 5.7-19.4 4.5-4.3 10-6.3 16.2-6.8 6.3-.4 12.1.9 17.3 4.4 4.3 2.9 7.4 6.7 8.9 11.8-.1.1 0 .3.1.6zm-36.1-3.2c0 1.9 1.6 3.5 3.5 3.5s3.5-1.6 3.5-3.5-1.6-3.5-3.5-3.5-3.5 1.6-3.5 3.5zm23.5 0c0-1.9-1.5-3.5-3.4-3.5s-3.4 1.5-3.4 3.4 1.5 3.5 3.4 3.5c1.8 0 3.4-1.6 3.4-3.4zM78 78.4c-.3-.1-.5-.2-.6-.2-2-.9-4-1.8-5.9-2.8-.5-.2-.9-.2-1.4-.1-7.4 1.9-14.3 1-20.5-3.5-3.7-2.7-6.2-6.3-7-11-.8-5 .6-9.4 3.9-13.2 3.3-3.8 7.6-6 12.5-6.8 6.1-1.1 11.9-.1 17.1 3.2 4.2 2.7 7.1 6.4 8.1 11.4 1.1 5.6-.7 10.3-4.5 14.3-.8.9-1.8 1.6-2.8 2.4-.4.3-.4.5-.3.9l1.3 4.7c0 .2.1.4.1.7zm-7.5-23.2c1.6 0 3-1.3 3-3 0-1.6-1.4-3-3-3s-2.9 1.3-3 3c0 1.6 1.3 3 3 3zm-17.1-3.1c0 1.6 1.3 2.9 2.9 2.9 1.6 0 2.9-1.3 2.9-2.9 0-1.6-1.3-2.9-2.9-2.9-1.6 0-2.9 1.3-2.9 2.9z"/></g></g></svg>