<svg xmlns="http://www.w3.org/2000/svg" viewBox="0 0 100 100" enable-background="new 0 0 100 100"><g><path fill="#E9E9E9" d="M81.8 25.1s-22.3-2.9-31.8-11.4c-8.8 8.7-31.7 11.4-31.7 11.4-.5 3.1-.7 6.2-.7 9.3 0 23.4 13.2 43.7 32.5 53.9 19.3-10.2 32.5-30.5 32.5-53.9-.1-3.2-.4-6.3-.8-9.3zm-31.9 54.4c-14.6-7.8-24.5-23.4-24.5-41.3 0-2.4.2-4.8.6-7.1 0 0 17.2-2 23.9-8.7 7.2 6.5 24 8.7 24 8.7.3 2.3.5 4.7.5 7.1 0 17.9-9.9 33.5-24.5 41.3zM57.4 58.3h-4.5v-26.7l-2.7-2.6-2.7 2.6v26.7h-4.9l1.8 2.7h3.9v8h4v-8h3.6z"/></g></svg>