<svg xmlns="http://www.w3.org/2000/svg" xmlns:xlink="http://www.w3.org/1999/xlink" viewBox="0 0 100 100" enable-background="new 0 0 100 100"><g><defs><path id="a" d="M-514-1651.5h1280v2612h-1280z"/></defs><clipPath><use xlink:href="#a" overflow="visible"/></clipPath><path fill="#F49966" d="M50.8 14.7l-19.4 5.6 19 6.1 19-5.9z"/><path fill="#F48446" d="M31.4 20.3v22.9l19 6.9v-23.7z"/><path fill="#E87C43" d="M69.2 20.5l.1 22.6-18.9 7v-23.7z"/><path fill="#F49966" d="M73.3 48.7l-19.4 5.6 19 6.1 19-5.9z"/><path fill="#F48446" d="M53.9 54.3v22.9l19 6.9v-23.7z"/><path fill="#E87C43" d="M91.7 54.5l.1 22.6-18.9 7v-23.7z"/><path fill="#F49966" d="M28.7 48.7l-19.5 5.6 19.1 6.1 18.9-5.9z"/><path fill="#F48446" d="M9.2 54.3v22.9l19.1 6.9v-23.7z"/><path fill="#E87C43" d="M47.1 54.5l.1 22.6-18.9 7v-23.7z"/></g></svg>