<svg xmlns="http://www.w3.org/2000/svg" xmlns:xlink="http://www.w3.org/1999/xlink" viewBox="0 0 100 100" enable-background="new 0 0 100 100"><g><defs><path id="a" d="M-401.8-1651.5h1280v2612h-1280z"/></defs><clipPath id="b"><use xlink:href="#a" overflow="visible"/></clipPath><g clip-path="url(#b)"><defs><path id="c" d="M15.4-61.8h53.8v64.8h-53.8z"/></defs><clipPath><use xlink:href="#c" overflow="visible"/></clipPath></g><path fill="#F48446" d="M70.4 28.1l-20.6-6.5-21.6 6.2v25.4l21.3 7.6 20.9-6.7v-26zm-20.7 5.6l-16.1-4.9 15.9-4.7 16.3 5-16.1 4.6zm-18.5-2.5l16.7 5.1v20.9l-16.7-6v-20zm19.7 26.2v-20.9l16.4-4.6.2 20.1-16.6 5.4z"/><defs><path id="d" d="M93.8 65.8h-87.1v-50.2h87.1v50.2zm3.8-51.8c-.1-1.2-1.1-2.2-2.3-2.2h-90c-1.2 0-2.3 1-2.3 2.2v60.8c0 1.3 1.1 2.4 2.4 2.4h89.9c1.3 0 2.4-1.1 2.4-2.4l-.1-60.8z"/></defs><clipPath id="e"><use xlink:href="#d" overflow="visible"/></clipPath><linearGradient id="f" gradientUnits="userSpaceOnUse" x1="50.278" y1="81.386" x2="50.278" y2="7.623"><stop offset="0" stop-color="#57798A"/><stop offset=".404" stop-color="#578"/><stop offset=".607" stop-color="#507080"/><stop offset=".765" stop-color="#476473"/><stop offset=".899" stop-color="#3A5360"/><stop offset=".969" stop-color="#314753"/></linearGradient><path clip-path="url(#e)" fill="url(#f)" d="M-1.3 7.6h103.1v73.8h-103.1z"/><defs><path id="g" d="M65.1 85.8c-3.8-1-4.7-3.8-4.7-7.6v-.9h-20.8v.9c0 3.8-1 6.6-4.8 7.6-.9.2-1 1.9 0 1.9l15.2-.1 15.1.1c1 0 1-1.7 0-1.9z"/></defs><linearGradient id="h" gradientUnits="userSpaceOnUse" x1="50" y1="87.678" x2="50" y2="77.171"><stop offset="0" stop-color="#57798A"/><stop offset="1" stop-color="#314753"/></linearGradient><use xlink:href="#g" overflow="visible" fill-rule="evenodd" clip-rule="evenodd" fill="url(#h)"/><clipPath id="i"><use xlink:href="#g" overflow="visible"/></clipPath><linearGradient id="j" gradientUnits="userSpaceOnUse" x1="50.016" y1="91.911" x2="50.016" y2="72.921"><stop offset="0" stop-color="#57798A"/><stop offset="1" stop-color="#314753"/></linearGradient><path clip-path="url(#i)" fill="url(#j)" d="M30 72.9l40.1.2-.1 18.8-40.1-.1z"/></g></svg>