<?xml version="1.0" encoding="utf-8"?>
<!-- Generator: Adobe Illustrator 18.1.0, SVG Export Plug-In . SVG Version: 6.00 Build 0)  -->
<svg version="1.1" xmlns="http://www.w3.org/2000/svg" xmlns:xlink="http://www.w3.org/1999/xlink" x="0px" y="0px"
	 viewBox="0 0 190 190" enable-background="new 0 0 190 190" xml:space="preserve">
<g id="bg" display="none">
</g>
<g id="Layer_1">
	<linearGradient id="SVGID_1_" gradientUnits="userSpaceOnUse" x1="92.145" y1="31.526" x2="92.145" y2="166.5427">
		<stop  offset="0" style="stop-color:#AA4B00"/>
		<stop  offset="0.1693" style="stop-color:#B7550C"/>
		<stop  offset="1" style="stop-color:#F48446"/>
	</linearGradient>
	<polygon display="none" fill="url(#SVGID_1_)" points="33.1,131.8 34.2,64.3 93.3,31.5 151.2,66.2 150.1,133.7 91,166.5 	"/>
	<path fill="#F48446" d="M96.5,36.6L45,65.4l-0.8,59l50.7,30.2l51.5-28.8l0.8-59L96.5,36.6z M139.7,121.8l-44.7,25l-44-26.2
		l0.7-51.2l44.7-25l44,26.2L139.7,121.8z"/>
	<g>
		<g>
			<polygon fill="#F48446" points="106.3,88.1 111.2,81 114.7,90.2 116.2,87.2 119.3,87.2 112.5,69.7 104.1,82 			"/>
			<polygon fill="#F48446" points="95.5,93.4 85.6,108.3 67.3,100.3 45.7,114 48.9,117.9 67.8,105.8 87.7,114.5 97.7,99.4 			"/>
			<polygon fill="#F48446" points="125.5,98 122.5,104.9 125.9,113.6 144.5,113.5 144.5,108.8 129.7,108.9 			"/>
		</g>
		<polygon fill="#F48446" points="110.4,125 90.9,73.3 78.2,93 46.3,93.1 46.3,86.6 72.9,86.5 92.3,54.3 110.6,104.9 116.8,89.5 
			144.4,89.5 144.4,96.1 123.1,96.2 		"/>
	</g>
	<path fill="#F48446" d="M96.3,6.2L18.5,49.8l-1.2,89.3L94,184.7l77.9-43.6l1.2-89.3L96.3,6.2z M161.7,135.1l-67.6,37.8l-66.6-39.6
		l1-77.4L96.2,18l66.6,39.6L161.7,135.1z"/>
</g>
</svg>
