<svg xmlns="http://www.w3.org/2000/svg" viewBox="0 0 100 100" enable-background="new 0 0 100 100"><g><path fill="#314753" d="M85.8 85h-71.6c-2.1 0-3.8-1.7-3.8-3.8v-14.2c0-2.1 1.7-3.8 3.8-3.8h71.6c2.1 0 3.8 1.7 3.8 3.8v14.3c0 2-1.7 3.7-3.8 3.7zm-71.6-18.2c-.1 0-.2.1-.2.2v14.3c0 .1.1.2.2.2h71.6c.1 0 .2-.1.2-.2v-14.3c0-.1-.1-.2-.2-.2h-71.6z"/><circle fill="#314753" cx="67.2" cy="75.7" r="1.6"/><circle fill="#314753" cx="73.1" cy="75.7" r="1.6"/><circle fill="#314753" cx="79.3" cy="75.7" r="1.6"/><g fill="#314753"><path d="M32.3 44.3c-.6-1.1-1.5-2-1.9-3.1-.9 1.3-1.5 2-2.1 2.8l-16.6 20.6 2.8 2.3"/><path d="M64 36.6h-25.6c.6 1.3 1.5 2.6 2.5 3.6h22c1-1.1 1.8-2.2 2.4-3.5-.4 0-.8-.1-1.3-.1zM71.5 43.5c-.6 1.1-1.3 2.2-2.1 3.1l16.6 20.2 2.8-2.3-17.3-21z"/></g><path stroke="#314753" stroke-width="6" stroke-miterlimit="10" d="M51.8 15c9.9 0 18 8 18 18s-8 18-18 18-18-8-18-18c0-3.1.8-6.1 2.2-8.6" fill="none"/><path fill="#314753" d="M29.1 23.7l9.5-4.9 2 9.8z"/></g></svg>