<svg xmlns="http://www.w3.org/2000/svg" viewBox="0 0 100 100" enable-background="new 0 0 100 100"><g><g fill="#314753"><path d="M64.3 34.5h-28.6c-1.7 0-3-1.4-3-3v-13.1c0-1.6 1.3-3 3-3h28.6c1.7 0 3 1.3 3 3v13.1c0 1.7-1.3 3-3 3zM22.8 69.3c-1.1 0-2-.9-2-2v-14.2h57.5v13.2c0 1.1-.9 2-2 2s-2-.9-2-2v-9.1h-49.5v10.2c0 1-.9 1.9-2 1.9zM39 84.6h-28.6c-1.7 0-3-1.3-3-3v-13.1c0-1.7 1.3-3 3-3h28.6c1.7 0 3 1.3 3 3v13.1c0 1.6-1.3 3-3 3zM89.6 84.6h-28.6c-1.7 0-3-1.3-3-3v-13.1c0-1.7 1.3-3 3-3h28.6c1.7 0 3 1.3 3 3v13.1c0 1.6-1.3 3-3 3z"/></g><g stroke="#314753" stroke-width="2.5" stroke-miterlimit="10" fill="none"><path d="M49.5 34.5v2.5"/><path stroke-dasharray="4.243,1.6972" d="M49.5 38.7v11"/><path d="M49.5 50.6v2.5"/></g></g></svg>