<svg xmlns="http://www.w3.org/2000/svg" viewBox="0 0 100 100" enable-background="new 0 0 100 100"><g fill="#314753"><path d="M72.2 88.4h-45.4c-1.1-.3-3.1-.9-4-2.2-.7-1-1-2-1.4-3.2v-58.4c.7-3 2.8-4.9 5.9-5.2h.2c.4 0 1.2 0 1.9.7l.2.2.1.3c.7 1.6 1.4 3.3 2.2 5 .7 1.6 1.3 3.1 2 4.6h32.1l2-4.8c.7-1.6 1.4-3.2 2.1-4.9.2-.9.9-1.5 1.8-1.5.3 0 .6.1.8.2 1.1.2 3 .8 4.2 2l.1.2c1 1.3 1.4 2.3 1.7 3.1l.1.2v58.3c-.3 1.2-.9 3-3 4.2-1 .6-2 .9-3.3 1.2h-.3zm-44.9-3h44.5c.9-.2 1.6-.4 2.2-.9.9-.5 1.3-1.1 1.6-2.1v-57.2c-.2-.6-.5-1.2-1-1.9-.5-.4-1.2-.8-2.1-1-.6 1.5-1.2 2.9-1.8 4.3l-2.1 5.1-.1.1c-.7 1.3-1.8 1.3-2.2 1.3h-32.9c-1.2 0-1.6-.6-1.9-.9l-.2-.2-.2-.3c-.7-1.6-1.4-3.3-2.1-5-.6-1.5-1.2-2.9-1.8-4.3-1.5.3-2.5 1.2-2.9 2.7v57.3c.2.8.5 1.5.9 2 .2.3.9.7 2.1 1zM72.2 88.4h-45.4c-1.1-.3-3.1-.9-4-2.2-.7-1-1-2-1.4-3.2v-58.4c.7-3 2.8-4.9 5.9-5.2h.2c.4 0 1.2 0 1.9.7l.2.2.1.3c.7 1.6 1.4 3.3 2.2 5 .7 1.6 1.3 3.1 2 4.6h32.1l2-4.8 2.1-4.9c.1-.6.5-1.1 1.1-1.3.5-.2 1-.2 1.5.1 1.1.2 2.9.8 4.2 2l.1.2c1 1.3 1.4 2.3 1.7 3.1l-2.8 1c-.3-.8-.5-1.3-1.1-2.2-.5-.4-1.2-.8-2.1-1-.6 1.5-1.2 2.9-1.8 4.3l-2.1 5.1-.1.1c-.7 1.3-1.8 1.3-2.2 1.3h-33.1c-1.2 0-1.6-.6-1.9-.9l-.2-.2-.2-.3c-.7-1.6-1.4-3.3-2.1-5-.6-1.5-1.2-2.9-1.8-4.3-1.5.3-2.5 1.2-2.9 2.7v57.3c.2.8.5 1.5.9 2 .2.2.9.7 2.1 1h44.5c.9-.2 1.6-.4 2.2-.9l1.6 2.5c-1 .7-2 1-3.3 1.3h-.1zM58.6 18.3c0 .3.3.5.6.5h8v.3c-.6 2.2-2 4.3-2.9 6.8 0 .3-.3.3-.6.3h-27.1c-.3 0-.3 0-.6-.3l-3.1-6.8v-.3h8c.3 0-.3.3 0 0 .9-2.4 2.1-4.7 3.1-7v-.3h12.3"/><path d="M29.3 49l2.1-2.1 2.5 2.5 6.1-6.1 2.3 2.4-8.4 8.2zM29.8 67.7l2.1-2.1 2.5 2.5 6.1-6.1 2.3 2.4-8.4 8.1zM44.7 47.3h22.8v2.7h-22.8zM44.3 66h22.8v2.7h-22.8z"/></g></svg>