<svg xmlns="http://www.w3.org/2000/svg" viewBox="0 0 100 100" enable-background="new 0 0 100 100"><path fill="#E9E9E9" d="M83.9 43.5c-.7-1.4-1.4-2.8-1.9-4.3-.5-1.6-.8-3.2-1-4.7-.4-2.3-.7-4.5-1.8-5.9-1.1-1.5-3.1-2.5-5.1-3.6-1.4-.7-2.9-1.5-4.2-2.4-1.3-.9-2.4-2.1-3.5-3.2-1.7-1.7-3.2-3.2-5-3.8-1.5-.5-3.7-.2-6.1.2-1.6.3-3.2.5-4.9.5s-3.3-.3-4.9-.5c-2.4-.4-4.6-.6-6.1-.2-1.8.6-3.4 2.2-5 3.8-1.1 1.1-2.2 2.3-3.5 3.2-1.3 1-2.8 1.7-4.2 2.4-2.1 1.1-4 2-5.1 3.5-1.1 1.5-1.4 3.6-1.8 5.9-.2 1.6-.5 3.2-1 4.7s-1.2 2.9-1.9 4.3c-1.1 2.1-2.1 4.1-2.1 6 0 1.9 1 3.9 2.1 6 .7 1.4 1.4 2.8 1.9 4.3.5 1.6.8 3.2 1 4.8.4 2.3.7 4.5 1.8 5.9 1.1 1.5 3.1 2.5 5.1 3.5 1.4.7 2.9 1.5 4.2 2.4 1.3.9 2.4 2.1 3.5 3.2 1.6 1.7 3.2 3.2 5 3.8 1.5.5 3.7.2 6.1-.2 1.6-.3 3.2-.5 4.9-.5 1.7 0 3.3.3 4.9.5 2.4.4 4.6.6 6.1.2 1.8-.6 3.4-2.2 5-3.8 1.1-1.1 2.2-2.3 3.5-3.2 1.3-1 2.8-1.7 4.2-2.4 2.1-1.1 4-2.1 5.1-3.6 1.1-1.5 1.4-3.6 1.8-5.9.2-1.6.5-3.2 1-4.8.5-1.5 1.2-2.9 1.9-4.3 1.1-2.1 2.1-4.1 2.1-6s-1-3.8-2.1-5.8zm-34.5-9.6h14.8v3.7h-14.8v-3.7zm-5.9 29.3h-4v-13.6c-.9 2.7-2 5.2-3.2 7-.4-1.1-1.4-2.9-2-3.9 1.8-2.4 3.6-6.8 4.4-10.5h-3.9v-3.7h4.7v-6.6h4v6.6h3.9v3.7h-3.9v.7c1 1.1 3.8 4.5 4.4 5.3l-2.2 3.2c-.5-1-1.4-2.6-2.3-4v15.8zm5-3c-.7-.6-2.3-1.6-3.2-2.1 1.7-2.3 3.1-5.9 3.9-9.4l3.6.8c-.9 3.9-2.6 8-4.3 10.7zm10-14.6v12.9c0 2-.3 3.1-1.5 3.8-1.2.7-2.9.7-5.1.7-.1-1.2-.6-2.9-1.1-4.1 1.3.1 2.8 0 3.2 0 .4 0 .6-.1.6-.5v-12.8h-6.6v-3.7h18.1v3.7h-7.6zm4.2 14.8c-.4-2.8-1.7-7.2-3.1-10.7l3.3-1.1c1.5 3.4 3 7.7 3.4 10.4l-3.6 1.4z"/></svg>