<svg xmlns="http://www.w3.org/2000/svg" viewBox="0 0 100 100" enable-background="new 0 0 100 100"><g><path fill="#5F5F5F" d="M83.5 31.6h-67v-13.4h67v13.4z"/><g fill="#5F5F5F"><path d="M16.5 68.6h13.2v13.2h-13.2zM16.5 52.1h13.2v13.2h-13.2zM16.5 35.5h13.2v13.2h-13.2z"/></g><g fill="#5F5F5F"><path d="M34.4 68.6h13.2v13.2h-13.2zM34.4 52.1h13.2v13.2h-13.2zM34.4 35.5h13.2v13.2h-13.2z"/></g><g fill="#5F5F5F"><path d="M52.3 68.6h13.2v13.2h-13.2zM52.3 52.1h13.2v13.2h-13.2zM52.3 35.5h13.2v13.2h-13.2z"/></g><g fill="#5F5F5F"><path d="M70.3 68.6h13.2v13.2h-13.2zM70.3 52.1h13.2v13.2h-13.2zM70.3 35.5h13.2v13.2h-13.2z"/></g></g></svg>