<?xml version="1.0" encoding="utf-8"?>
<!-- Generator: Adobe Illustrator 18.0.0, SVG Export Plug-In . SVG Version: 6.00 Build 0)  -->
<!DOCTYPE svg PUBLIC "-//W3C//DTD SVG 1.1//EN" "http://www.w3.org/Graphics/SVG/1.1/DTD/svg11.dtd">
<svg version="1.1" xmlns="http://www.w3.org/2000/svg" xmlns:xlink="http://www.w3.org/1999/xlink" x="0px" y="0px"
	 viewBox="0 0 479.8 406.8" enable-background="new 0 0 479.8 406.8" xml:space="preserve">
<g id="bg" display="none">
</g>
<g id="Layer_1">
	<g>
		<defs>
			<rect id="SVGID_80_" x="327.8" y="-1271.2" width="1280" height="2612"/>
		</defs>
		<clipPath id="SVGID_1_">
			<use xlink:href="#SVGID_80_"  overflow="visible"/>
		</clipPath>
	</g>
	<path fill="#314753" d="M380.7,2.8l-3.5,1.5l-5.4,1.3l-5.5,3.1l-2.8,0.8l-2.6,4.7l-1.3,1l-0.2,2.4l1.4-0.2l2.8,0.2l0.4,1.8l0.9,1.4
		l-0.2,3.8l-2.7,3.3l-2,7.2l-0.9,3.8l-1.3,4l1.5,2.4l-1.3,2.6l-2.9,0.7l-3.1,3.7l-2.4,1.8l-4.1-0.2l-4.2-1.7l-3.3,10.5l0.5,1.7
		l-1,1.4l-0.4,4.4l-1.8,1.6l1.5,3.1l2.2,1.6l1.6-1.8l5.9-1.2l3.2,1.5l2-3.6l5-0.9l3,1.8l2.1,0.3l1.4,2l4.4,2.6l2.4,4.7l-1.6,1.8
		l-2.8,0.7l-3.5-0.9l-1.4,0.8l-2.2-0.4l-4.3,3.4l-2-0.4l-0.7,2.1l-3.5,0.5l-2.5,2.6l-1.3,3.2l0,2.1l-3.9,4.1l-7.4,1l-1.4,2.6
		l-5.5,5.4l-7.6-0.3l-1.7-1.4l-4.5-0.1l-2.9,7.9l5.1,6.1l-1.7,1.3l-1.4,1.6l-3.6,2l-5.3,7.1l-7.1,3.7l-9.5,0.8l-3.1,0.8l-3.9-0.5
		l-1.5,1.3l-4.3,1.1l-6.7,3.5l-6.9,4.4l-2.2-0.7l-1.5-2.1l-3.1,0.8l-8.6-2.3l-6.5-1.6l-2.7-3.3l-13.6-2.2l-7.3,1.3l-8-1.5l-6.9-0.6
		l-6.8-1.7l-3.8-5l-2.6-8.7l-1.6-1l0-2.1l-3.6-0.9l-6.4-4.6l-3.8-3.6l-13.3-1.9l-3.5-1.9l-2.7-0.5l-1.3-1.4l0.3-3.5l3-4.1l-0.7-3.2
		l1.3-1.6l0.2-2.5l-2.8-5.3l-0.7-4.4l-2.5-3.7l-1.4,0.3l-2.6-2.7l-1.4,0.4l-2,0l-1-1.4l-1.6-3.5l-3.4-2.3l0-1.3l-1.6-2.7l0.8-1.2
		l-0.1-2l-2.2,0.5l-2.3-1l-2.8,0.5l-0.3,2.2l-1.1,2.6l-3.6,1.6l-3.4-0.6l-2.8,6.3l0.4,5l-0.7,2.6l-3.1,0.6l-3,1.5l-1.2-1.4l-2.1-1.1
		l-2.8-0.2l-6.5-3.7l-1,2.4l-5.2,8.9L87,91.6l2.1,2l-1.4,2.8l-1.7-1.2l-2.8,0l-1.9-2.5l-5.3,0.9h-7.1l-1.7,1.5l3.9,2.3l-1,1.6
		l-1.2,4.9l1.3,6.4l-0.5,2l0.3,2.2l-2.7,0.8l-0.1,2l-2.8,1.1l-0.2,2.4l-1.1,4.9l-2.1-0.7l-1.8,1.1l-4.3,0.7l-6.9,2l-3.8,3.3
		l-5.1-0.5l-4.5-1.7l-3.6,4l-2.6,2l-2.1-0.8l-2.5,0.2l-1.1-3.7l-2.7,1l-3.3-1.2l-0.2,1.2L12,134l-2.7-0.5l-1.9,1.7L6.8,139l-2.3,0.4
		l-0.9,2l0.9,3L3,145.2l0.7,4.4l2.5-1.3l4.9,3.1l-1.2,3.1l0.4,2.2l-0.4,5.1l0,2.5l-5.5,0.1l-0.1,1.6l2.9,1.9l3.4,0.8l0.8,2.6l2.5,1
		l0.7,4.2l-0.9,2.7l1.4,3.2l2.2,0.4l3.1,3.5l6.9,3.2l0.4,0l0,0l0.4,0l0.8,0l0.3,0.7l-0.6,1l-0.3,0.9l0.5,2L29,195l-0.1,1.1l0.3,0.8
		l0.1,1.3l-0.1,0.7l0.5,1.1l1,0.4l1.6,0.7l0.7,0.9l0.3,0.7l0.9,0.5l0.4,0.7l-0.2,1.2l-0.6,0.5l-1.9,0.3l-0.2,1l0.1,1l0.1,1.1
		l-0.2,0.8l-0.5,1.8l0.3,1.3l0,0.2l0.1,0.1l0,0.1l0.2,0.2v0l2.4,2.8l0,0.1l-0.8-0.4l-0.3,0.7l-0.4,0.5l-0.1,0.4l0.2,0.4l0.4,0.2
		l0.3,0.9l-0.3,0.6l-0.3,0.2l0.2,0.5l0,0.4l-0.3,0.7l0.1,0.4l-0.4,0.5l-0.1,0.7l0.6-0.1l0.5-0.3l0,0.3l-4.5,0.9l-0.8-2.5l-2.5-0.5
		l-0.5,3l1.4,3.8l-0.1,0.4l-0.2-0.5l-1-1.2l-0.5-1.3l-0.6,0.2l0,0.8l0.4-0.1l0.6,1l0.7,1.1l0.2,0.9l0.1-0.1l-0.2,0.5l0.1,1.9
		l-0.6,1.9l0,1.2l0.9,0.9l-0.2,0.1l0.4,0.9l0,0.9l0.3,0.5l1.4,0.6h0.6l0.4,0l1.8,1.8l3.1,0.8l1.6,2.4l-0.4-0.5l-0.1,0.7l0,0.5
		l0.5,0.2l0.4,0.6l0.4-0.3l0.2,0.3l3.4,3.2l2.5,2.7l1,2.2l5-3.4l0.6,1.8l2.2,1.6l4.5,3.1l2,2.8l3.6,2.9l0.9,3.9l2.3,2.2l2-2.6l1.8,1
		l-0.5,4.4l6,3.9l2.7-0.3l-0.3,1.6l0.5,2.3l2.7,0.6l3.2,2.1l0.8,2.5l1.4-1.5l1.5,1.7l1.3,0.6l2.3-1.4l4.9,4.1l2.8-0.4l1.5,1.1l9.1-2
		l2.2,1.2l0.1,1.7l-1.4,3l0.5,1.7l0.9-0.1l2.9-3.1l3.5-2.9l4.9-2.2l2.8,1l3,3l5.6,0.7l3.6,2.5l-0.8,1.8l0.5,1.4l0.9,1l2.2,0.1
		l0.7,0.8l-0.1,0.9l-0.9,1.1l0,1l0.6,0.4l0.3,1.1l-0.1,0.4l1.9,0.1l1.9-0.3l1.5-0.5l1.3,1l1.7,0.1l1.7,0.4l1.7-0.2l0.8,0.2l0.5-0.1
		l2-0.4l1.1-0.3l0.4-1.6l1.5-1.4l1.3-0.8l1.4-1.5l1.9-0.4l3.3-0.7l1.5-0.9l1.2-0.3l1-0.6l1-0.4l0.6-1.7l5.5-1.7l0.3,0.7l0.8,0.5
		l1.3,0l0.8-0.3l0.6,1l0.7,0.1l0.2-0.2l1.7,1.4l1.9,1.6l1.4,0.5l0.7,0.8l0.1,0.7l3.3-2.2l0.3-0.9l-0.3-1.2l0.3-1l-0.3,0l1.7-1.9
		l1.8-0.6l1.3,1.6l1.9,0.8l1,3.5l2.1,4.6l1-1.2l2.2,1.4l-0.4,3.7l0.4,1.6l-0.2,7.4l-1.5,3l0.5,2.4l-1.6,0.7l-1.6,2.3l-1.5,0.1
		l-0.8,2.2l-3,1.2l-0.8,2.8l0.3,1.2l-1.6,0.5l-0.7,1.2l0.3,2.4l0.8,0.9l0.4,2.1l-1.3,2.1l0.3,1.2l2.6-0.9l1.4-1.5l4.5-0.3l1.2,0.7
		l2.5-0.3l-1.7,2.5l1.3,1.9l0.8,5.3l1.7,1.5l3.8,0l0.4,1.4l-1.8,2.7l0.4,2.1l-1.5,2l-0.5,2l1.7,0.8l1-0.2l5,1.2l-0.3,2.5l1.4,1.5
		l1.4,2.8l1.2-1.3l2.3,1l2.4-2l2.6-0.9l2.3,5.8l2.3-0.4l2.2,0.5l0.5-5l-2.3-6.1l1.5-2.8l1.3,0.6l3.4-0.2l1.9-1.4l1.4-2.1l3.2,1.6
		l1.1,1.4l1,0.1l3.3-3.6l1.6,2.3l1.3-2.2l3.1,3l0.8-2l1.5-1.5l1.3,1.2l1.6-0.8l3.4-1.3l0.1-2l4.6-3.1l2.5,2.4l3.6,2l2.3-0.8l1.6,1.5
		l1.9-0.8l2.8,1l0.1,1.5l-1.8,1.4l-0.2,1.6l0.8,0.8l0.9,3.4l2.9,0.7l1.6,1.8l3.6,1.5l3.3-0.9l1.8,1.2l1.6-0.6l0.3,0.2h1l0.5-1.1
		l1.3-0.4v-2.3l1.3-0.4l0.4,1.5l1.2,1.6l0.7-0.7l1.3,0.7l1.3,0.4l0.5,2l0.8-0.6l2.9-0.6l-0.5-2.1l0.6-0.1l1.5,1.8l2.8,0.2l-0.6,1.1
		l-1.3,2.1l-0.5,3.9l1.3,0.4l0.2,2.8l2.1,1.1l-0.6,0.5l0.4,1.2l3.7-0.1l1.7-1.7l0.1-0.7l-1.7-1.7l-0.4-1.7l-1.3-0.5l-0.5-1.6
		l1.1-1.1l1.7-1.2l1.2-0.1l1.7-2.3l2-0.1l0.8-1.1l2.7-0.1l0.9-0.7h1.6l1.6-1.1v-1.1l1.5-0.5l1.1-0.6h1.6h2l0.4-1.1l1.8,0.5l2.1-1.5
		h2l-0.2-2.9l0.5-1l1.6,2.1l1.7-2.2l-0.6-1.5l1.4,1.3l0.7-0.1l0.5-0.9l-0.1-0.9l-0.7-1.8l-0.2-1.7l-0.4-0.7l0.4-1l1,1l1.1-0.1
		l0.5,1.2l1.2,1.1l1.3-0.1l-0.5,1.7l1.2-0.1l0.8,0.2l1.4,0.3l-0.3-0.9l1-0.6l-1.5-1.3l1.6-0.7l1.4,0.7l0.1-1.8l1.7-0.8l0.2,1.8
		l1.6-0.1l0.7-1.2l1.7-1.6l1.5-0.1l0.6,0.4l0.1,1.1h1.3l0.4-2.1l0.5-0.6l2,1.1l1.8-1.3l1.1-0.2l1.5-1.1l2.3-0.4l0.2-2.6l2-0.8
		l-0.7-1.2l-1-0.4l2.8-0.2l1.8-0.8l-1-0.9l0.9-1.2l1.7,0.1l0.4-1.7l1.3,0.2l-0.5-2.2l1.8,0.5v-2.1h1.3l1-1.6l1-1l-0.6-1.2l-1.1-1
		l2-0.4l0.9-1.2l1.5-0.7h2.1l0.6-0.8l0.5-1.1l-1-0.6l-0.4-1l2.6-0.1l0.5-0.9l-0.7-1.3l1-0.8l1-0.9l1.1-0.4l-1.1-1.3l0.2-1.3l0.9-1
		l1.3,0.8l1.1,0.2l0.3-0.8l-1.1-1.6l1.1-1.7l-0.6-1.1l0.2-1.1l-0.7-1.2l0.6-2l0.9-1.1l-0.5-0.8l-1.8-1.6l0.4-1.3l1.6,0.2l0.5,0.6
		l0.4-2l1.6-1.1l0.7-0.6l0.1-1.7l1-1l-0.8-0.6h1.2l1.3-1.8l-0.1-1.8l0.1-1.1l0.8-2.4l0.7-1.7l0.8-0.6l0.2-2.9l1.5-0.6l0.4,2.5
		l1.3-1.8l1.6-1.1l-1-2.1l-0.9-1.5l1.3-1.2v-1.7l1.3-1.8l-0.5-1.5l0.8-0.7l-0.5-1.8l-0.2-2.9l-0.9,2.1l-1.3,0.1l1.7-2.3l2.1-1.6
		l1.7-0.8l-0.2-1.2l-2.7-1.1l-1.1,0.4l-0.7,1.7l-1.2,0.5l-1.6-1.1l-2.2-1.7l-1.8,0.2l-2.3,2.1l-1.2,0.5l-2.2-0.4l-2-0.5l-0.4-0.6
		l1.6-0.9l2.6-0.2l1.5-0.5l0.1-1.5l3.1-2.5l2.2-1.6l1.6-2l0.4-2l-1.7-1.5l-2.6-1l-2-1.1l-1-1.1l-2-0.4l-2.3-0.4l-0.2-1.3l-1.8-0.4
		l-2,1l-0.7,0.2l0.8-1.3l1.6-0.7l2.3,0.2l0.8,1.2l1.3,0.5h2.3l1.7,0.2l1.7,1l2.2,0.4l1.1-0.2l0.4-0.7l-1.3-1.8l-2.6-2.3l-2.3-0.6
		L409,232l-2.2-0.8l-2.4-0.6l-0.9-0.6l0.4-1.6l-0.6-1.6l-2.9-4.3l-1.8-3.1l-2.3-4.4l-1.2-1.2l-3.2-1l-2.8-0.8l-1.1-1.2l-2.7-0.5
		l-0.2-2.2l1.2-1.2l0.2-2.1l0.7-1.1l1-2.4l1.6-0.5l0.4-1.2l0.7-2l1.2-1.1l-1.3-1.5l0.7-0.7l1.2,0.6l1.6,0.2l1.3-1.3l-0.1-2.9
		l0.7-1.3l1.1-0.2l2.2-1.8l1.6-1.1l2.1-1.6l1.2-1.6l1.3,0.2l0.6-0.6l1.3,1.2l1.6-1.2l-0.6-1.6l0.5-1.2l-0.1-2.2l-1.6-0.6l-1.3,0.7
		l-1.6-0.7l-2.5,1l-2,1l-1.1-0.5l-0.8-1l-1.1,0.2l-2.1-1.3l-1.6-0.7l-2,0.7l-2.1,1.6l-0.4,2l-2.2,2l-0.4,2.1l-1.6,1.7l-3.4-0.4
		l-2.6-1l-0.4-4.6l-1.6-1.7l-2.3-0.6l-1.5-1.1l-1.3,0.5l-1.6,1l-1.5-1.2l-2-1.6l-1.3-2.6l-0.2-3.2l0.8-2.1l2-1.3l1.1-0.2l1.7,0.9
		l1.2-0.6l0.7-0.8h1.7l0.7-0.5l0.6,0.3l0.4-2.5l0.6-2.2l1.3-2.2l1.2-0.7V156l2.6-1.6l2.9-2.2l1.5-1l0.1-2.5l1.8-2.6l0.7-0.7l0.2-1.6
		l1.6-1l2.4-0.1l1.7-1l1.5,0.4l2.4,2.4l1.3,1l-0.8,2l-0.9,2l-0.6,1.8l-2,1.5l-0.8,1l-0.1,2.5l-1.1,0.6l1.7,1l1,0.9l1.7-0.5l-0.7,2.1
		l-0.2,1.2l-1.3,0.7l-0.5,1l-1.1,0.1l-0.5,1.8l0.7,0.8l2-1.6l1.7-2l2-1.3l1.1-1.2l0.8-2l3.7-3.3l2.6-2.1l1.2-0.1l0.5-1.2l2.2-0.4
		l1-1l2.6-0.2l1.7-1l0.7-3.1l4.5-5.6l5.3-4.5l3.5-5.8l0.3-3.8l2.7-1.9l3.3,2.3l7.1-0.9l0.2-1.9l-2.6-2.9l0.4-1.6l3.7-0.9l3.5-2.3
		l0.5-3.2l2.6-0.7l0.2-6.4l2.3-0.4l1.6,2.5l2.3,0.4l-1-1.1l0.9-1.5l2.3-1.7l1.2-5.8l-1.2-1.3l-0.8-5.5l-4.6-8l2.5-1.2l2.5-5.1
		l1.9,0.7l7.5-0.6l-0.4-4.6l1.4-1.7l0.4-6.1l0.9-2.1l-0.9-2.8l0.2-1.9l-0.3-5l-0.4-1.7l0.7-1.7l1.3-1.1l0.7-2.8l-2.2-2.5l0-3.2
		l-2.3-1l-3.7,2.8l-1.9,2.7l-1.9,0.3l-2,1.6l-1.6,3.8l-4.8,2.2l-3.4,0.3l-2.3,1.2l-4.1-3.3l0.6-2.5l-2.7-2.8l-0.6-3l-2.5,0.9
		l-6.9-4.1l-2.2,1.1l-4.1-1.8l-2.6,1.7l-3.3,0.2l-3-2.9l-0.5-3.2l-1.8-0.7l-0.6-3.5l-4.4-4.5l-0.2-2.1l-4.5-5.6l-0.8-3l-2-2.8
		l-2.3-1.8l-1.1-1.9l-6.4-3.2l-2.7,1.2L380.7,2.8z M423.8,306.9l-0.6,0.9l0.3,1l-2.1,0.8l-1.5,1.2l-0.7,1.6l-0.3,1.9l-1.1,1.2
		l-0.8,2.9l-0.9,2.5l-1.3,3l-0.7,2.5l-0.3,2.7l0.2,2.5l0.7,1.1l1,1.6l1,2.8l1.2,1.6l1.5,0.6l1.4,0.3l1.1,1.5l0.7,1.8v1l0.4,0.3
		l1.1-0.3l0.3-2.3l-0.5-2.2l0.6-2.8l1.7-2.8l1-3.3l0.5-3.1l0.3-8.9l0.3-2.7l0.4-0.7v-1.8l-0.6-0.7l-0.5-1.4l0.9-1.4l0.3-0.8
		l-0.6-0.7l-1.7-0.4h-0.8l-0.9-1H423.8z M326.2,376.8l-2.3,1l-2.1,0.6l-3.2,0.4l-0.4,0.8l-1.6,0.3l-2.5-0.4l-0.6,0.1l-0.9,0.4v0.9
		l-0.7,0.3l-1.9-0.1l-1,0.7v1l1.2,0.1l-0.7,1.1l-1.3,0.3l-3.7,2.6l-0.6,1.3l0.3,1.2l-0.4,1.1l0.4,2.3l0.6,1.5l0.3,2.1l2.6,1.1
		l2.1,0.9l3-0.2l1,1l2.2-0.3v-1.7l1.7-0.4l1.6-0.1l0.1-0.9l1.7-2.2h1l1.1-0.5l0.3-2.2l0.4-3l1.3-2.8l1.3-1.8l1.2-1l-0.3-1.6
		l-0.7-1.9v-1.7L326.2,376.8z"/>
</g>
</svg>
