<?xml version="1.0" encoding="utf-8"?>
<!-- Generator: Adobe Illustrator 18.0.0, SVG Export Plug-In . SVG Version: 6.00 Build 0)  -->
<!DOCTYPE svg PUBLIC "-//W3C//DTD SVG 1.1//EN" "http://www.w3.org/Graphics/SVG/1.1/DTD/svg11.dtd">
<svg version="1.1" xmlns="http://www.w3.org/2000/svg" xmlns:xlink="http://www.w3.org/1999/xlink" x="0px" y="0px"
	 viewBox="0 0 100 100" enable-background="new 0 0 100 100" xml:space="preserve">
<g id="bg" display="none">
</g>
<g id="Layer_1">
	<path fill="#5F5F5F" d="M67.6,34.6l-5.7-0.6c-0.4-1.6-1.1-3.1-1.9-4.6l3.7-4.5c0.8-0.8,0.7-2.3-0.2-3.2L60,18.3
		c-0.9-0.9-2.4-1-3.2-0.2l-4.5,3.6c-1.5-0.8-3-1.5-4.7-2L47,14c0-1.2-1.1-2.1-2.4-2.1h-4.8c-1.3,0-2.4,1-2.4,2.1l-0.6,5.8
		c-1.6,0.4-3.1,1.1-4.5,1.9l-4.5-3.6c-0.8-0.8-2.3-0.7-3.2,0.2l-3.4,3.4c-0.9,0.9-1,2.4-0.2,3.2l3.6,4.5c-0.8,1.4-1.4,2.9-1.8,4.5
		l-5.7,0.7c-1.2,0-2.1,1.1-2.1,2.4v4.8c0,1.3,1,2.4,2.1,2.4l5.8,0.6c0.5,1.6,1.1,3.1,1.9,4.5l-3.6,4.5c-0.8,0.8-0.7,2.3,0.2,3.2
		l3.4,3.4c0.9,0.9,2.4,1,3.2,0.2l4.5-3.6c1.4,0.8,2.8,1.4,4.3,1.8l0.6,5.8c0,1.2,1.1,2.1,2.4,2.1h4.8c1.3,0,2.4-1,2.4-2.1l0.6-5.7
		c1.6-0.4,3.1-1.1,4.6-1.9l4.5,3.7c0.8,0.8,2.3,0.7,3.2-0.2l3.4-3.4c0.9-0.9,1-2.4,0.2-3.2l-3.6-4.5c0.8-1.4,1.5-2.9,1.9-4.5
		l5.8-0.6c1.2,0,2.1-1.1,2.1-2.4V37C69.7,35.7,68.7,34.6,67.6,34.6z M42.3,47.7c-4.7,0-8.5-3.8-8.5-8.5c0-4.7,3.8-8.5,8.5-8.5
		c4.7,0,8.5,3.8,8.5,8.5C50.8,43.9,47,47.7,42.3,47.7z"/>
	<path fill="#5F5F5F" d="M82.6,77.7l-2.8-2.1c0.3-1,0.4-2,0.4-3.1c0-1-0.1-2-0.4-3l2.8-2c0.6-0.4,0.8-1.2,0.4-1.9l-1.4-2.5
		c-0.4-0.7-1.2-1-1.8-0.6l-3.2,1.4c-1.5-1.5-3.3-2.6-5.4-3.1l-0.4-3.5c0-0.7-0.7-1.3-1.5-1.3h-2.9c-0.8,0-1.5,0.6-1.5,1.3l-0.4,3.5
		c-2,0.6-3.8,1.6-5.3,3.1l-3.2-1.4c-0.6-0.4-1.4-0.1-1.8,0.6l-1.4,2.5c-0.4,0.7-0.2,1.6,0.4,1.9l2.8,2.1c-0.2,1-0.4,2-0.4,3
		c0,1.1,0.1,2.1,0.4,3.1l-2.8,2.1c-0.6,0.4-0.8,1.2-0.4,1.9l1.4,2.5c0.4,0.7,1.2,1,1.8,0.6l3.2-1.4c1.4,1.4,3.2,2.4,5.2,3l0.4,3.5
		c0,0.7,0.7,1.3,1.5,1.3h2.9c0.8,0,1.5-0.6,1.5-1.3l0.4-3.5c2-0.6,3.9-1.6,5.3-3l3.2,1.4c0.6,0.4,1.4,0.1,1.8-0.6l1.4-2.5
		C83.4,78.9,83.2,78.1,82.6,77.7z M68,78c-3.1,0-5.5-2.5-5.5-5.5c0-3.1,2.5-5.5,5.5-5.5c3.1,0,5.5,2.5,5.5,5.5
		C73.5,75.6,71,78,68,78z"/>
</g>
</svg>
