<?xml version="1.0" encoding="utf-8"?>
<!-- Generator: Adobe Illustrator 18.0.0, SVG Export Plug-In . SVG Version: 6.00 Build 0)  -->
<!DOCTYPE svg PUBLIC "-//W3C//DTD SVG 1.1//EN" "http://www.w3.org/Graphics/SVG/1.1/DTD/svg11.dtd">
<svg version="1.1" xmlns="http://www.w3.org/2000/svg" xmlns:xlink="http://www.w3.org/1999/xlink" x="0px" y="0px"
	 viewBox="0 0 100 100" enable-background="new 0 0 100 100" xml:space="preserve">
<g id="bg" display="none">
</g>
<g id="Layer_1">
	<g>
		<path fill="#5F5F5F" d="M76.8,78.5L66.7,61h-7.4c-0.5-0.7-1.2-1.1-2.1-1.1c-0.9,0-1.7,0.4-2.1,1.1h-4.6c-0.9-1.5-2.6-2.5-4.4-2.5
			c-1.9,0-3.5,1-4.4,2.5h-8.3L23.3,78.5c-0.5,0.8-0.5,1.8,0,2.6c0.5,0.8,1.3,1.3,2.3,1.3h48.9c0.9,0,1.8-0.5,2.3-1.3
			C77.3,80.4,77.3,79.3,76.8,78.5z"/>
		<path fill="none" stroke="#5F5F5F" stroke-width="4" stroke-miterlimit="10" d="M77.8,77.1L60.4,47V20.2h-0.2c1.2,0,2.2-1,2.2-2.2
			c0-1.2-1-2.2-2.2-2.2H39.8c-1.2,0-2.2,1-2.2,2.2c0,1.2,1,2.2,2.2,2.2h-0.2V47L22.2,77.1c-0.8,1.4-0.9,3.3,0,4.8
			c0.9,1.5,2.5,2.4,4.1,2.4h47.3c1.7,0,3.3-0.9,4.2-2.4C78.7,80.4,78.6,78.5,77.8,77.1z"/>
		<g>
			<g>
				<path fill="#FFFFFF" d="M57.9,62.8c0,0.5-0.4,0.9-0.9,0.9c-0.5,0-0.9-0.4-0.9-0.9c0-0.5,0.4-0.9,0.9-0.9
					C57.4,61.9,57.9,62.3,57.9,62.8z"/>
			</g>
		</g>
		<g>
			<g>
				<circle fill="#FFFFFF" cx="46.2" cy="64" r="2.1"/>
			</g>
		</g>
		<g>
			<g>
				<path fill="#FFFFFF" d="M43.1,73.8c0,1.6-1.3,2.9-2.9,2.9c-1.6,0-2.9-1.3-2.9-2.9c0-1.6,1.3-2.9,2.9-2.9
					C41.8,70.9,43.1,72.2,43.1,73.8z"/>
			</g>
		</g>
		<g>
			<g>
				<path fill="#FFFFFF" d="M58.9,70.3c0,2.4-2,4.4-4.4,4.4c-2.4,0-4.4-2-4.4-4.4c0-2.4,2-4.4,4.4-4.4
					C56.9,65.9,58.9,67.8,58.9,70.3z"/>
			</g>
		</g>
		<g>
			<g>
				<path fill="#FFFFFF" d="M63.2,77.6c0,0.7-0.6,1.3-1.3,1.3c-0.7,0-1.3-0.6-1.3-1.3c0-0.7,0.6-1.3,1.3-1.3
					C62.7,76.3,63.2,76.9,63.2,77.6z"/>
			</g>
		</g>
	</g>
</g>
</svg>
