<?xml version="1.0" encoding="utf-8"?>
<!-- Generator: Adobe Illustrator 18.1.0, SVG Export Plug-In . SVG Version: 6.00 Build 0)  -->
<svg version="1.1" xmlns="http://www.w3.org/2000/svg" xmlns:xlink="http://www.w3.org/1999/xlink" x="0px" y="0px"
	 viewBox="0 0 100.7 100.7" enable-background="new 0 0 100.7 100.7" xml:space="preserve">
<g id="bg" display="none">
</g>
<g id="Layer_1">
	<path fill="#5F5F5F" d="M64.6,26.9h-4v-3c0-1.2-0.9-2.1-2.1-2.1H42.2c-1.2,0-2.1,0.9-2.1,2.1v3h-4v-3c0-3.4,2.7-6.1,6.1-6.1h16.2
		c3.4,0,6.1,2.7,6.1,6.1V26.9z"/>
	<g>
		<path fill="#5F5F5F" d="M56.2,49l0.9-0.2v-0.1c0-0.8-0.6-1.4-1.4-1.4H45.1c-0.8,0-1.4,0.6-1.4,1.4v0.1l0.9,0.2
			C48.4,49.7,52.3,49.7,56.2,49z"/>
		<path fill="#5F5F5F" d="M41.3,48.4c0.2-1.9,1.8-3.5,3.8-3.5h10.5c2,0,3.6,1.5,3.8,3.5l25.4-4.7l0.3,1.6V35.1
			c0-3.4-2.8-6.1-6.1-6.1H21.7c-3.4,0-6.1,2.8-6.1,6.1v10.2l0.3-1.6L41.3,48.4z"/>
		<path fill="#5F5F5F" d="M50.3,52.8c-2.2,0-4.3-0.2-6.5-0.6l-0.3,0v1.4c0,0.8,0.6,1.4,1.4,1.4h10.5c0.8,0,1.4-0.6,1.4-1.4v-1.4
			l-0.3,0C54.7,52.6,52.5,52.8,50.3,52.8z"/>
		<path fill="#5F5F5F" d="M59.5,53.5c0,2.1-1.7,3.8-3.9,3.8H45.1c-2.1,0-3.8-1.7-3.8-3.8v-1.9l-25.6-4.8v18.7c0,3.4,2.8,6.1,6.1,6.1
			H79c3.4,0,6.1-2.8,6.1-6.1V46.9l-25.6,4.8V53.5z"/>
		<polygon fill="#5F5F5F" points="85.1,45.3 85.1,46.9 85.4,46.8 		"/>
		<polygon fill="#5F5F5F" points="15.3,46.8 15.6,46.9 15.6,45.3 		"/>
	</g>
</g>
</svg>
