<?xml version="1.0" encoding="utf-8"?>
<!-- Generator: Adobe Illustrator 18.1.0, SVG Export Plug-In . SVG Version: 6.00 Build 0)  -->
<svg version="1.1" xmlns="http://www.w3.org/2000/svg" xmlns:xlink="http://www.w3.org/1999/xlink" x="0px" y="0px"
	 viewBox="0 0 100 100" enable-background="new 0 0 100 100" xml:space="preserve">
<g id="bg" display="none">
</g>
<g id="Layer_1">
	<g>
		<defs>
			<path id="SVGID_140_" d="M50,50.9c-6.3,0-11.5-5.1-11.5-11.5C38.5,33.1,43.7,28,50,28c6.3,0,11.5,5.1,11.5,11.5
				C61.5,45.8,56.3,50.9,50,50.9z M50,15.6c-13.2,0-23.8,10.4-23.8,23.3c0,0.3,0,0.6,0,0.8c0.1,2.4,0.6,4.8,1.4,7
				C32.7,63.1,50,84.4,50,84.4s17.3-21.3,22.4-37.6c0.8-2.2,1.3-4.5,1.4-7c0-0.3,0-0.6,0-0.8C73.8,26.1,63.2,15.6,50,15.6z"/>
		</defs>
		<use xlink:href="#SVGID_140_"  overflow="visible" fill-rule="evenodd" clip-rule="evenodd" fill="#5F5F5F"/>
		<clipPath id="SVGID_1_">
			<use xlink:href="#SVGID_140_"  overflow="visible"/>
		</clipPath>
		<rect x="11.1" y="0.5" clip-path="url(#SVGID_1_)" fill="#5F5F5F" width="77.8" height="99"/>
	</g>
</g>
</svg>
