<?xml version="1.0" encoding="utf-8"?>
<!-- Generator: Adobe Illustrator 18.0.0, SVG Export Plug-In . SVG Version: 6.00 Build 0)  -->
<!DOCTYPE svg PUBLIC "-//W3C//DTD SVG 1.1//EN" "http://www.w3.org/Graphics/SVG/1.1/DTD/svg11.dtd">
<svg version="1.1" xmlns="http://www.w3.org/2000/svg" xmlns:xlink="http://www.w3.org/1999/xlink" x="0px" y="0px"
	 viewBox="0 0 100 100" enable-background="new 0 0 100 100" xml:space="preserve">
<g id="bg" display="none">
</g>
<g id="Layer_1">
	<g>
		<polygon fill="#314753" points="63.1,47.8 61.8,44.3 70.2,43.6 80.5,34.6 82.3,37.7 71,47.1 		"/>
		<polygon fill="#314753" points="37.8,36.4 29,36.4 22.1,27.8 25.3,25.2 30.6,32.8 38.6,32.6 		"/>
		<polygon fill="#314753" points="51.4,68 41.4,62.2 36.9,52.5 29.1,50.9 30.8,47.5 39.9,49.8 44.4,59.7 53.7,65.2 		"/>
		<polygon fill="#314753" points="54.4,58.5 52.4,55.6 61.1,52.3 61.1,33 70.5,21.1 72.7,23.6 64.7,34.9 64.7,54.6 		"/>
		<polygon fill="#314753" points="50.6,49.3 35.4,40.6 35.4,18.6 39.2,18.2 39.2,37.8 53.4,45.9 		"/>
		<rect x="50.6" y="30.7" fill="#314753" width="4.6" height="48.4"/>
		<circle fill="#314753" cx="52.8" cy="78.4" r="7.7"/>
		<circle fill="#314753" cx="53" cy="29.5" r="4.5"/>
		<circle fill="#314753" cx="27.7" cy="48.6" r="4.5"/>
		<circle fill="#314753" cx="37.5" cy="15.6" r="4.5"/>
		<circle fill="#314753" cx="22.1" cy="25" r="4.5"/>
		<circle fill="#314753" cx="73.3" cy="19.5" r="4.5"/>
		<circle fill="#314753" cx="83.2" cy="34" r="4.5"/>
	</g>
</g>
</svg>
