<svg xmlns="http://www.w3.org/2000/svg" viewBox="0 0 100 100" enable-background="new 0 0 100 100"><g fill="#314753"><path d="M25.6 19.3v15.2c-1.2-.8-2.3-1.2-3.9-1.2-2.1 0-2.8.5-3.9 1.2v-15.2c0-3.2 1.6-5.9 3.9-5.9s3.9 2.4 3.9 5.9zM21.6 50.7c1.6 0 2.8-.5 3.9-1.3v35c0 3.2-2 5.9-3.9 5.9-2.4 0-3.9-2.4-3.9-5.9v-34.9c1.5.9 2.3 1.1 3.9 1.2zM53.9 18.9v35.9c-1.2-.8-2.4-1.2-3.9-1.2-1.2 0-2.8.5-3.6.9l.1-35.6c-.1-3.3 1.4-5.9 3.7-5.9 2.2 0 3.7 2.4 3.7 5.9zM50 71c1.6 0 2.8-.4 3.9-1.2v14.3c0 3.3-1.5 6.1-3.9 6.1s-3.9-2.5-3.9-6.1v-14.3c1.1.8 2.7 1.2 3.9 1.2zM82.7 18.9v5.3c-1.2-.8-2.1-1.1-3.8-1.1-1.9 0-2.9.4-4.1 1.1v-5.3c0-3.6 1.6-5.9 3.8-5.9 2.4 0 4.1 2.4 4.1 5.9zM78.7 40.3c1.6 0 2.8-.6 3.9-1.1v45.2c0 3.5-2 5.9-3.9 5.9-2.1 0-3.9-2.4-3.9-5.9v-45.3c1.2.8 2.8 1.2 3.9 1.2z"/><circle cx="50" cy="62.1" r="6.9"/><circle cx="78.7" cy="31.8" r="6.9"/><circle cx="21.6" cy="42" r="6.9"/></g></svg>