<?xml version="1.0" encoding="utf-8"?>
<!-- Generator: Adobe Illustrator 18.0.0, SVG Export Plug-In . SVG Version: 6.00 Build 0)  -->
<!DOCTYPE svg PUBLIC "-//W3C//DTD SVG 1.1//EN" "http://www.w3.org/Graphics/SVG/1.1/DTD/svg11.dtd">
<svg version="1.1" xmlns="http://www.w3.org/2000/svg" xmlns:xlink="http://www.w3.org/1999/xlink" x="0px" y="0px"
	 viewBox="0 0 100 100" enable-background="new 0 0 100 100" xml:space="preserve">
<g id="bg" display="none">
</g>
<g id="Layer_1">
	<g>
		<circle fill="#314753" cx="51.8" cy="52.6" r="8.5"/>
		<path fill="#314753" d="M51.8,37.3c-8.4,0-15.3,6.8-15.3,15.3s6.8,15.3,15.3,15.3S67.1,61,67.1,52.6S60.2,37.3,51.8,37.3z
			 M51.8,65.1c-6.9,0-12.5-5.6-12.5-12.5s5.6-12.5,12.5-12.5c6.9,0,12.5,5.6,12.5,12.5S58.7,65.1,51.8,65.1z"/>
		
			<rect x="32.5" y="32.7" transform="matrix(-0.7071 0.7071 -0.7071 -0.7071 85.8309 43.0974)" fill="#314753" width="2.9" height="13.3"/>
		
			<ellipse transform="matrix(-0.1392 -0.9903 0.9903 -0.1392 1.3304 90.0765)" fill="#314753" cx="39.8" cy="44.5" rx="2.9" ry="2.9"/>
		
			<ellipse transform="matrix(-0.1392 -0.9903 0.9903 -0.1392 -1.0255 62.6807)" fill="#314753" cx="26.7" cy="31.8" rx="5.5" ry="5.4"/>
		<polygon fill="#314753" points="66.5,23.8 69.5,25.9 58.6,39.9 55.6,37.7 		"/>
		<ellipse transform="matrix(0.9659 -0.2588 0.2588 0.9659 -8.1935 15.9798)" fill="#314753" cx="56.6" cy="39.1" rx="3" ry="2.9"/>
		
			<ellipse transform="matrix(-0.9659 0.2588 -0.2588 -0.9659 145.1431 22.1002)" fill="#314753" cx="71.1" cy="20.6" rx="9.2" ry="9"/>
		
			<rect x="18.8" y="56.2" transform="matrix(-0.9397 0.342 -0.342 -0.9397 74.8554 102.168)" fill="#314753" width="19.2" height="2.9"/>
		
			<ellipse transform="matrix(-0.9563 -0.2924 0.2924 -0.9563 60.1025 118.0392)" fill="#314753" cx="38.9" cy="54.5" rx="2.9" ry="2.9"/>
		<circle fill="#314753" cx="19.6" cy="60.3" r="4.3"/>
		
			<rect x="46.5" y="69.6" transform="matrix(-0.1564 -0.9877 0.9877 -0.1564 -9.093 134.2386)" fill="#314753" width="12.5" height="2.9"/>
		
			<ellipse transform="matrix(0.4695 -0.883 0.883 0.4695 -29.3396 79.9504)" fill="#314753" cx="51.9" cy="64.4" rx="2.9" ry="2.9"/>
		
			<ellipse transform="matrix(0.4695 -0.8829 0.8829 0.4695 -42.4217 91.4364)" fill="#314753" cx="54.9" cy="81" rx="7.4" ry="7.6"/>
		
			<rect x="69.7" y="43.5" transform="matrix(-0.4844 0.8749 -0.8749 -0.4844 151.0781 15.0065)" fill="#314753" width="2.9" height="17"/>
		
			<ellipse transform="matrix(-0.3746 -0.9272 0.9272 -0.3746 43.4819 125.5484)" fill="#314753" cx="64.1" cy="48.1" rx="2.9" ry="2.9"/>
		
			<ellipse transform="matrix(-0.3746 -0.9272 0.9272 -0.3746 56.3795 151.3446)" fill="#314753" cx="79.2" cy="56.7" rx="5.5" ry="5.4"/>
	</g>
</g>
</svg>
