<svg xmlns="http://www.w3.org/2000/svg" viewBox="0 0 100 100" enable-background="new 0 0 100 100"><g fill="#314753"><path d="M93.9 74c-1.1 0-2-.9-2-2 0-23.1-18.8-41.9-41.9-41.9s-41.9 18.8-41.9 41.9c0 1.1-.9 2-2 2s-2-.9-2-2c0-25.4 20.6-46 45.9-46s45.9 20.6 45.9 46c0 1.1-.9 2-2 2zM50 34.1h-.1c-.6 0-1-.5-1-1v-3.3c0-.6.5-1 1-1h.1c.6 0 1 .5 1 1v3.3c.1.5-.4 1-1 1zM56.7 34.7h-.1c-.5-.1-.9-.6-.8-1.2l.6-3.3c.1-.5.6-.9 1.2-.8h.1c.5.1.9.6.8 1.2l-.6 3.3c-.2.5-.7.9-1.2.8zM63.1 36.4h-.1c-.5-.2-.8-.8-.6-1.3l1.1-3.1c.2-.5.8-.8 1.3-.6h.1c.5.2.8.8.6 1.3l-1.1 3.1c-.2.5-.8.8-1.3.6zM69.1 39.2l-.1-.1c-.5-.3-.6-.9-.4-1.4l1.7-2.9c.3-.5.9-.6 1.4-.4l.1.1c.5.3.6.9.4 1.4l-1.7 2.9c-.3.5-.9.6-1.4.4zM74.6 43l-.1-.1c-.4-.4-.5-1-.1-1.4l2.1-2.5c.4-.4 1-.5 1.4-.1l.1.1c.4.4.5 1 .1 1.4l-2.1 2.5c-.4.4-1 .5-1.4.1zM79.3 47.7l-.1-.1c-.4-.4-.3-1.1.1-1.4l2.5-2.1c.4-.4 1.1-.3 1.4.1l.1.1c.4.4.3 1.1-.1 1.4l-2.5 2.1c-.4.4-1.1.3-1.4-.1zM83.1 53.2l-.1-.2c-.3-.5-.1-1.1.4-1.4l2.9-1.7c.5-.3 1.1-.1 1.4.4l.1.1c.3.5.1 1.1-.4 1.4l-2.9 1.7c-.5.3-1.1.1-1.4-.3zM85.9 59.2v-.1c-.2-.5.1-1.1.6-1.3l3.1-1.1c.5-.2 1.1.1 1.3.6v.1c.2.5-.1 1.1-.6 1.3l-3.1 1.1c-.5.2-1.1-.1-1.3-.6zM87.7 65.6v-.1c-.1-.5.3-1.1.8-1.2l3.3-.6c.5-.1 1.1.3 1.2.8v.1c.1.5-.3 1.1-.8 1.2l-3.3.6c-.6.1-1.1-.2-1.2-.8zM43.3 34.7h-.1c-.5.1-1.1-.3-1.2-.8l-.6-3.3c-.1-.5.3-1.1.8-1.2h.1c.5-.1 1.1.3 1.2.8l.6 3.3c.1.6-.2 1.1-.8 1.2zM36.8 36.4h-.1c-.5.2-1.1-.1-1.3-.6l-1.1-3.1c-.2-.5.1-1.1.6-1.3h.1c.5-.2 1.1.1 1.3.6l1.1 3.1c.2.6-.1 1.2-.6 1.3zM30.7 39.3l-.1.1c-.5.3-1.1.1-1.4-.4l-1.7-2.9c-.3-.5-.1-1.1.4-1.4l.1-.1c.5-.3 1.1-.1 1.4.4l1.7 2.9c.2.5.1 1.1-.4 1.4zM25.2 43.1l-.1.1c-.4.4-1.1.3-1.4-.1l-2.1-2.5c-.4-.4-.3-1.1.1-1.4l.1-.1c.4-.4 1.1-.3 1.4.1l2.1 2.5c.4.4.3 1.1-.1 1.4zM20.4 47.9l-.1.1c-.4.4-1 .5-1.4.1l-2.6-2.1c-.4-.4-.5-1-.1-1.4l.1-.1c.4-.4 1-.5 1.4-.1l2.5 2.1c.5.3.5 1 .2 1.4zM16.5 53.4l-.1.1c-.3.5-.9.6-1.4.4l-2.9-1.7c-.5-.3-.6-.9-.4-1.4l.1-.1c.3-.5.9-.6 1.4-.4l2.9 1.7c.5.3.7.9.4 1.4zM13.6 59.5v.1c-.2.5-.8.8-1.3.6l-3.1-1.1c-.5-.2-.8-.8-.6-1.3v-.1c.2-.5.8-.8 1.3-.6l3.1 1.1c.5.2.8.8.6 1.3zM11.8 66v.1c-.1.5-.6.9-1.2.8l-3.3-.6c-.5-.1-.9-.6-.8-1.2v-.1c.1-.5.6-.9 1.2-.8l3.3.6c.6.1.9.6.8 1.2z"/><circle cx="50" cy="70.3" r="3.6"/><path d="M51 73.1l-3.3-1.4 16-34z"/></g></svg>