<svg xmlns="http://www.w3.org/2000/svg" viewBox="0 0 100 100" enable-background="new 0 0 100 100"><g fill="#314753"><path d="M17.6 44l4.2 3c1.4-13.3 12-23.8 25.3-25.2l3.2-4.5-3.2-4.5c-18.4 1.3-33.1 16.2-34.4 34.6l4.9-3.4zM55.2 17.2l-3.2 4.5c13.9 1 25 12.1 26.2 25.9l4.8 3.4 4.3-3.1c-1-19-16.3-34.2-35.3-35.2l3.2 4.5zM83 55.9l-4.7-3.4c-1.2 13.5-12 24.4-25.5 25.7l-3.3 4.6 3.1 4.4c18.4-1.3 33.2-16 34.6-34.4l-4.2 3.1zM44.6 82.8l3.2-4.6c-14-1.1-25.3-12.4-26.1-26.5l-4.1-2.9-4.9 3.5c1.2 18.8 16.3 33.8 35 34.9l-3.1-4.4z"/></g></svg>