<svg xmlns="http://www.w3.org/2000/svg" viewBox="0 0 100 100" enable-background="new 0 0 100 100"><g><path d="M17.3 31.6"/><g fill="#314753"><path d="M73 77.9h-49.5c-5 0-6.9-1.9-6.9-6.9l-3.8-30.6c0-4.6 1.5-6.7 5.2-7.1l3.4-9.6c.3-1 1.3-1.6 2.3-1.6h20.3c1 0 1.9.6 2.3 1.6l3.5 9.5h19.2c4.2 0 7.2 2.7 7.9 7.4l3 30.2c0 5.2-1.9 7.1-6.9 7.1zm-51.4-5c.1 0 .5.1 1.9.1h49.5c1.5 0 1.9-.2 2-.2 0 0 .1-.3.1-1.9l-3-29.8c-.4-2.8-1.9-3.1-3.1-3.1h-20.9c-1 0-1.9-.6-2.3-1.6l-3.5-9.5h-17l-3.3 9.5c-.3 1-1.3 1.6-2.3 1.6-1.5 0-1.9.2-2 .2 0 0-.1.4-.1 1.9l3.8 30.6c0 1.8.2 2.2.2 2.2zM77.5 74.6h-.5c-1.3-.3-2.2-1.5-1.9-2.9l7.3-36.6c.5-4.4-2.6-5.4-3.8-5.6h-24c-1.3 0-2.4-1.1-2.4-2.4s1.1-2.4 2.4-2.4h24.5c2.5.3 8.9 3 8 11.2l-7.3 36.8c-.2 1.1-1.2 1.9-2.3 1.9z"/></g></g></svg>