<svg xmlns="http://www.w3.org/2000/svg" viewBox="0 0 100 100" enable-background="new 0 0 100 100"><g fill="#314753"><circle cx="23.1" cy="20.8" r="4.4"/><circle cx="58.6" cy="20.8" r="4.4"/><circle cx="41.1" cy="20.8" r="4.4"/><circle cx="76.9" cy="20.8" r="4.4"/><circle cx="23.1" cy="40.1" r="4.4"/><circle cx="58.6" cy="40.1" r="4.4"/><circle cx="41.1" cy="40.1" r="4.4"/><circle cx="76.9" cy="40.1" r="4.4"/><circle cx="23.1" cy="59.4" r="4.4"/><circle cx="58.6" cy="59.4" r="4.4"/><circle cx="41.1" cy="59.4" r="4.4"/><circle cx="76.9" cy="59.4" r="4.4"/><circle cx="23.1" cy="79.1" r="4.4"/><circle cx="58.6" cy="79.1" r="4.4"/><circle cx="41.1" cy="79.1" r="4.4"/><circle cx="76.9" cy="79.1" r="4.4"/><path d="M69.9 42c-6-7.6-17-9-24.6-3-7.6 6-9 17-3 24.6 5.2 6.7 14.3 8.5 21.6 4.9 0 0 0 .1.1.1l10.6 13.6c1.3 1.6 3.6 1.9 5.3.6 1.6-1.3 1.9-3.6.6-5.3l-10.6-13.6c0-.1-.1-.1-.1-.1 5-6.2 5.3-15.3.1-21.8zm-5.7 21c-5.7 4.4-13.9 3.4-18.3-2.2s-3.4-13.9 2.2-18.3 13.9-3.5 18.3 2.2 3.5 13.9-2.2 18.3z"/></g></svg>