<svg xmlns="http://www.w3.org/2000/svg" viewBox="0 0 100 100" enable-background="new 0 0 100 100"><g fill="#314753"><path d="M52.9 57.2c0-.1-.8-5.5-1.2-7.7l-3.9-29.2 3.2-.4 3.9 29.1c.4 2.3 1.1 7.5 1.2 7.8l-3.2.4zM80.8 70.3c-.1-.1-16.8-26-16.8-26s-16.6-24.4-16.7-24.5l2.6-1.8c.1.2 16.8 24.6 16.8 24.6s16.6 25.9 16.7 26.1l-2.6 1.6zM55.585 54.747l28 12.834-1.333 2.909-28-12.834zM54.539 54.312l.68 3.127-35.766 7.777-.68-3.127zM20.011 62.303l20.226 14.002-1.821 2.631-20.226-14.002zM48.475 17.526l2.645 1.801-30.734 45.127-2.645-1.801zM81.81 68.66l.616 3.14-43.57 8.551-.616-3.14zM53.962 55.314l2.571 1.906-16.736 22.573-2.571-1.906zM47.081 18.575l3.156.529-10.503 62.624-3.156-.529z"/><circle cx="49.4" cy="20" r="5.8"/><circle cx="54.9" cy="55.4" r="4.3"/><circle cx="81.7" cy="68.7" r="5.8"/><circle cx="38.1" cy="80" r="5.8"/><circle cx="18.3" cy="65.2" r="5.8"/></g></svg>