<svg xmlns="http://www.w3.org/2000/svg" xmlns:xlink="http://www.w3.org/1999/xlink" viewBox="0 0 100 100" enable-background="new 0 0 100 100"><g><defs><path id="a" d="M-734.5-1868.4h1280v2612h-1280z"/></defs><clipPath><use xlink:href="#a" overflow="visible"/></clipPath><path fill="#314753" d="M81 24.7s-21.8-2.9-31.1-11.1c-8.6 8.4-30.9 11.1-30.9 11.1-.5 3-.7 6-.7 9.1 0 22.9 12.9 42.7 31.8 52.7 18.9-10 31.8-29.8 31.8-52.7-.1-3.1-.4-6.2-.9-9.1zm-31.1 53.1c-14.2-7.6-23.9-22.8-23.9-40.3 0-2.4.2-4.7.5-7 0 0 16.9-2 23.4-8.5 7 6.3 23.4 8.5 23.4 8.5.3 2.3.5 4.6.5 7 .1 17.5-9.6 32.7-23.9 40.3z"/><defs><path id="b" d="M-680.4-3604.4h1280v4450h-1280z"/></defs><clipPath><use xlink:href="#b" overflow="visible"/></clipPath></g></svg>