<svg xmlns="http://www.w3.org/2000/svg" xmlns:xlink="http://www.w3.org/1999/xlink" viewBox="0 0 100 100" enable-background="new 0 0 100 100"><g><defs><path id="a" d="M-1066.5-1865.3h1280v2612h-1280z"/></defs><clipPath><use xlink:href="#a" overflow="visible"/></clipPath><defs><path id="b" d="M-1012.4-3601.3h1280v4450h-1280z"/></defs><clipPath><use xlink:href="#b" overflow="visible"/></clipPath><g fill="#314753"><path d="M64.3 39.3h-28.6c-1.7 0-3-1.3-3-3v-13.1c0-1.6 1.3-3 3-3h28.6c1.7 0 3 1.4 3 3v13.1c0 1.6-1.3 3-3 3zM49.5 51.1c-1.1 0-2-.9-2-2v-9.8c0-1.1.9-2 2-2s2 .9 2 2v9.8c0 1.1-.9 2-2 2zM22.8 64.6c-1.1 0-2-.9-2-2v-14.3h57.5v13.2c0 1.1-.9 2-2 2s-2-.9-2-2v-9.1h-49.5v10.2c0 1.1-.9 2-2 2zM39 79.8h-28.6c-1.7 0-3-1.3-3-3v-13.1c0-1.7 1.3-3 3-3h28.6c1.7 0 3 1.3 3 3v13.1c0 1.7-1.3 3-3 3zM89.6 79.8h-28.6c-1.7 0-3-1.3-3-3v-13.1c0-1.7 1.3-3 3-3h28.6c1.7 0 3 1.3 3 3v13.1c0 1.7-1.3 3-3 3z"/></g></g></svg>