<?xml version="1.0" encoding="utf-8"?>
<!-- Generator: Adobe Illustrator 18.0.0, SVG Export Plug-In . SVG Version: 6.00 Build 0)  -->
<!DOCTYPE svg PUBLIC "-//W3C//DTD SVG 1.1//EN" "http://www.w3.org/Graphics/SVG/1.1/DTD/svg11.dtd">
<svg version="1.1" xmlns="http://www.w3.org/2000/svg" xmlns:xlink="http://www.w3.org/1999/xlink" x="0px" y="0px"
	 viewBox="0 0 100 100" enable-background="new 0 0 100 100" xml:space="preserve">
<g id="bg" display="none">
</g>
<g id="Layer_1">
	<g>
		<defs>
			<rect id="SVGID_90_" x="-512.1" y="-1870.6" width="1280" height="2612"/>
		</defs>
		<clipPath id="SVGID_1_">
			<use xlink:href="#SVGID_90_"  overflow="visible"/>
		</clipPath>
	</g>
	<g>
		<path fill="#314753" d="M50,14.8c-19.3,0-35,15.7-35,35c0,19.3,15.7,35,35,35s35-15.7,35-35C85,30.5,69.3,14.8,50,14.8z M50,80.7
			c-17.1,0-30.9-13.8-30.9-30.9S32.9,18.9,50,18.9s30.9,13.8,30.9,30.9S67.1,80.7,50,80.7z"/>
		<path fill="#314753" d="M50,23.8c-14.4,0-26,11.6-26,26c0,14.4,11.6,26,26,26s26-11.6,26-26C76,35.4,64.4,23.8,50,23.8z M50,71.8
			c-12.2,0-22-9.8-22-22s9.8-22,22-22s22,9.8,22,22S62.2,71.8,50,71.8z"/>
		<path fill="#314753" d="M50,33.3c-9.1,0-16.5,7.4-16.5,16.5c0,9.1,7.4,16.5,16.5,16.5s16.5-7.4,16.5-16.5
			C66.5,40.7,59.1,33.3,50,33.3z M50,62.2c-6.8,0-12.4-5.5-12.4-12.4S43.2,37.4,50,37.4S62.4,43,62.4,49.8S56.8,62.2,50,62.2z"/>
		<path fill="#314753" d="M50.3,51.2l-2.2-1.9l21.3-24.8c0.5-0.6,1.4-0.7,2-0.2l0,0c0.6,0.5,0.7,1.4,0.2,2L50.3,51.2z"/>
		<circle fill="#314753" cx="49.8" cy="49.5" r="3.7"/>
		<circle fill="#314753" cx="38.5" cy="30.1" r="5.4"/>
		<circle fill="#314753" cx="24.9" cy="40.1" r="4.9"/>
		<circle fill="#314753" cx="70.9" cy="62.5" r="6.9"/>
	</g>
	<g>
		<defs>
			<rect id="SVGID_131_" x="-457.9" y="-3604.6" width="1280" height="4450"/>
		</defs>
		<clipPath id="SVGID_2_">
			<use xlink:href="#SVGID_131_"  overflow="visible"/>
		</clipPath>
	</g>
</g>
</svg>
