<svg xmlns="http://www.w3.org/2000/svg" xmlns:xlink="http://www.w3.org/1999/xlink" viewBox="0 0 100 100" enable-background="new 0 0 100 100"><g><g fill="#314753"><path d="M67.2 78.1l.3-4.6 4.4-1.2-4.3-1.6.2-4.6-2.9 3.6-4.3-1.6 2.5 3.8-2.8 3.6 4.4-1.2zM71.9 28.3l-4.3-1.8.4-4.6-3 3.4-4.2-1.8 2.3 4-3 3.5 4.5-1.1 2.4 4 .4-4.6zM77.1 46.6l2.2-4.1 4.5.8-3.2-3.3 2.2-4-4.2 2-3.2-3.3.7 4.5-4.2 2 4.6.8zM82.1 64.3l-1.6-4.3 3.7-2.8-4.6.2-1.6-4.4-1.3 4.5-4.6.1 3.8 2.6-1.2 4.4 3.6-2.8zM40.8 48.9l11.2-8.1h-13.9l-4.2-13.1-4.3 13.1h-13.8l11.2 8.1-4.3 13.2 11.2-8.1 11.2 8.1z"/></g><defs><path id="a" d="M-1229.8-3490.7h1280v4450h-1280z"/></defs><clipPath><use xlink:href="#a" overflow="visible"/></clipPath></g></svg>