<svg xmlns="http://www.w3.org/2000/svg" viewBox="0 0 100 100" enable-background="new 0 0 100 100"><g><g fill="#314753"><path d="M35.2 64.1c-.8-.9-1.5-1.8-2.2-2.7l-9.2 9.1c-1.4 1.5-1.4 3.8.1 5.3l.3.3c1.5 1.5 3.9 1.4 5.3-.1l8.9-8.7c-1.1-1-2.2-2-3.2-3.2zM43 51.9c.6.9 1.3 1.7 1.9 2.3.9 1 2.1 2.2 3.5 3.4l12.6-12.8c4.1 1.8 9.1 1 12.4-2.4 3.1-3.2 3.9-7.8 2.5-11.7l-6.3 6.4-5.4-1.1-1.2-5.4 6.2-6.4c-4-1.4-8.5-.5-11.7 2.7-3.3 3.4-4 8.4-2.1 12.5l-12.4 12.5z"/></g><path stroke="#314753" stroke-width="4" stroke-miterlimit="10" d="M74 64.8l-.3-.6c-.9-2-11.5-5.1-12.4-5.2l-.7.1c-1.3.2-2.7 1.4-5.5 3.8-.6.5-1.3.6-2 .2-3.6-2-8.1-6.1-10.3-8.6-2.4-2.7-5.3-7-6.7-10.6-.2-.7 0-1.4.5-1.9 3.2-2.8 4.5-4.2 4.6-5.7.1-.9-1.8-11.8-3.7-12.9l-.6-.4c-1.2-.8-3.1-2-5.1-1.5-.5.1-1 .3-1.4.6-1.4.9-4.8 3.2-6.3 6.2-.9 1.9-1.4 19.3 11.6 33.9 13 14.7 28.9 15.3 31.2 14.8h.1l.2-.1c3.2-1.2 5.9-4.2 7-5.5 1.9-2.2.6-5-.2-6.6z" fill="none"/></g></svg>