<svg xmlns="http://www.w3.org/2000/svg" xmlns:xlink="http://www.w3.org/1999/xlink" viewBox="0 0 100 100" enable-background="new 0 0 100 100"><g><defs><path id="a" d="M-404-1868.7h1280v2612h-1280z"/></defs><clipPath><use xlink:href="#a" overflow="visible"/></clipPath><ellipse stroke="#314753" stroke-width="4" stroke-miterlimit="10" cx="50" cy="24.6" rx="31" ry="5.1" fill="none"/><g stroke="#314753" stroke-width="4" stroke-miterlimit="10" fill="none"><path d="M19.1 25.6zM80.9 25.6c0 2.8-13.8 5.1-30.9 5.1s-30.9-2.3-30.9-5.1v16c0 2.8 13.8 5.1 30.9 5.1s30.9-2.3 30.9-5.1v-16z"/></g><g stroke="#314753" stroke-width="4" stroke-miterlimit="10" fill="none"><path d="M19.1 41.4zM80.9 41.4c0 2.8-13.8 5.1-30.9 5.1s-30.9-2.3-30.9-5.1v16c0 2.8 13.8 5.1 30.9 5.1s30.9-2.3 30.9-5.1v-16z"/></g><path stroke="#314753" stroke-width="4" stroke-miterlimit="10" fill="none" d="M19.1 57.4z"/><path fill="#314753" d="M50 80.4c-8.3 0-16.2-.5-22.1-1.5-7.5-1.2-10.7-2.9-10.7-5.5v-16h3.9c0-.3-.1-.5-.2-.6 1.3 1.5 12.5 3.7 29.1 3.7s27.7-2.2 29.1-3.7c0 0-.2.3-.2.6h3.9v16c0 2.6-3.2 4.3-10.7 5.5-5.9 1-13.8 1.5-22.1 1.5zm-28.9-7.4c1.9 1.5 12.9 3.5 28.9 3.5s27-2 28.9-3.5v-11.7c-1.7.6-3.9 1.2-6.8 1.6-5.9 1-13.8 1.5-22.1 1.5s-16.2-.5-22.1-1.5c-2.9-.5-5.1-1-6.8-1.6v11.7z"/><defs><path id="b" d="M-349.9-3604.6h1280v4450h-1280z"/></defs><clipPath><use xlink:href="#b" overflow="visible"/></clipPath></g></svg>