<svg xmlns="http://www.w3.org/2000/svg" xmlns:xlink="http://www.w3.org/1999/xlink" viewBox="0 0 100 100" enable-background="new 0 0 100 100"><g><defs><path id="a" d="M-1167.7-1755h1280v2612h-1280z"/></defs><clipPath><use xlink:href="#a" overflow="visible"/></clipPath><path fill="#314753" d="M79.2 23.8h-58.4c-1.7 0-3.2 1.4-3.2 3.2v46.2c0 1.7 1.4 3.2 3.2 3.2h58.4c1.7 0 3.2-1.4 3.2-3.2v-46.3c0-1.7-1.5-3.1-3.2-3.1zm-38.8 4.5c1 0 1.8.8 1.8 1.8s-.8 1.8-1.8 1.8-1.8-.8-1.8-1.8.8-1.8 1.8-1.8zm-7.8 0c1 0 1.8.8 1.8 1.8s-.8 1.8-1.8 1.8-1.8-.8-1.8-1.8.8-1.8 1.8-1.8zm-7.5 0c1 0 1.8.8 1.8 1.8s-.8 1.8-1.8 1.8-1.8-.8-1.8-1.8.8-1.8 1.8-1.8zm51.6 41.9h-53.4v-34.5h53.3v34.5z"/><defs><path id="b" d="M-1113.6-3490.9h1280v4450h-1280z"/></defs><clipPath><use xlink:href="#b" overflow="visible"/></clipPath></g></svg>