<svg xmlns="http://www.w3.org/2000/svg" xmlns:xlink="http://www.w3.org/1999/xlink" viewBox="0 0 100 100" enable-background="new 0 0 100 100"><g><defs><path id="a" d="M-846.6-1867h1280v2612h-1280z"/></defs><clipPath><use xlink:href="#a" overflow="visible"/></clipPath><path fill="#314753" d="M72.8 23.6c-9.1-11.6-25.8-13.6-37.3-4.6-11.6 9-13.6 25.7-4.6 37.3 7.9 10.1 21.7 12.9 32.7 7.4 0 0 0 .1.1.1l16.1 20.6c1.9 2.5 5.5 2.9 8 1s2.9-5.5 1-8l-16.1-20.6-.2-.2c7.6-9.4 8-23.1.3-33zm-8.8 31.9c-8.6 6.7-21.1 5.2-27.8-3.4s-5.2-21 3.4-27.8 21.1-5.2 27.8 3.4 5.3 21.1-3.4 27.8z"/><path stroke="#314753" stroke-width="3" stroke-miterlimit="10" fill="none" d="M10 44.1l17.6-5.6 10.3 2.8 7.3-11.9 4.2 21.9 8.2-14.3 8 4.7 24.4-10.6"/><defs><path id="b" d="M-792.5-3603h1280v4450h-1280z"/></defs><clipPath><use xlink:href="#b" overflow="visible"/></clipPath></g></svg>