<svg xmlns="http://www.w3.org/2000/svg" xmlns:xlink="http://www.w3.org/1999/xlink" viewBox="0 0 100 100" enable-background="new 0 0 100 100"><g><defs><path id="a" d="M-1175.4-1865.3h1280v2612h-1280z"/></defs><clipPath><use xlink:href="#a" overflow="visible"/></clipPath><defs><path id="b" d="M-1121.2-3601.3h1280v4450h-1280z"/></defs><clipPath><use xlink:href="#b" overflow="visible"/></clipPath><g fill="#314753"><path d="M75.6 38.2h-52c-2.8 0-5.1-2.3-5.1-5.1v-11.5c0-2.8 2.3-5.1 5.1-5.1h52c2.8 0 5.1 2.3 5.1 5.1v11.5c0 2.9-2.3 5.1-5.1 5.1zm-52-17.8c-.7 0-1.3.6-1.3 1.3v11.5c0 .7.6 1.3 1.3 1.3h52c.7 0 1.3-.6 1.3-1.3v-11.6c0-.7-.6-1.3-1.3-1.3h-52zM70.1 30.1h-6.6c-1.1 0-2.1-.9-2.1-2.1 0-1.1.9-2.1 2.1-2.1h6.6c1.1 0 2.1.9 2.1 2.1-.1 1.2-1 2.1-2.1 2.1zM75.6 61.3h-52c-2.8 0-5.1-2.3-5.1-5.1v-11.5c0-2.8 2.3-5.1 5.1-5.1h52c2.8 0 5.1 2.3 5.1 5.1v11.5c0 2.9-2.3 5.1-5.1 5.1zm-52-17.8c-.7 0-1.3.6-1.3 1.3v11.5c0 .7.6 1.3 1.3 1.3h52c.7 0 1.3-.6 1.3-1.3v-11.6c0-.7-.6-1.3-1.3-1.3h-52zM70.1 53.2h-6.6c-1.1 0-2.1-.9-2.1-2.1 0-1.1.9-2.1 2.1-2.1h6.6c1.1 0 2.1.9 2.1 2.1-.1 1.2-1 2.1-2.1 2.1zM75.6 84.6h-52c-2.8 0-5.1-2.3-5.1-5.1v-11.5c0-2.8 2.3-5.1 5.1-5.1h52c2.8 0 5.1 2.3 5.1 5.1v11.5c0 2.8-2.3 5.1-5.1 5.1zm-52-17.9c-.7 0-1.3.6-1.3 1.3v11.5c0 .7.6 1.3 1.3 1.3h52c.7 0 1.3-.6 1.3-1.3v-11.5c0-.7-.6-1.3-1.3-1.3h-52zM70.1 76.4h-6.6c-1.1 0-2.1-.9-2.1-2.1 0-1.1.9-2.1 2.1-2.1h6.6c1.1 0 2.1.9 2.1 2.1-.1 1.2-1 2.1-2.1 2.1z"/></g></g></svg>