<svg xmlns="http://www.w3.org/2000/svg" xmlns:xlink="http://www.w3.org/1999/xlink" viewBox="0 0 100 100" enable-background="new 0 0 100 100"><g><defs><path id="a" d="M-512.1-1868.6h1280v2612h-1280z"/></defs><clipPath><use xlink:href="#a" overflow="visible"/></clipPath><g fill="#314753"><path d="M50 15c-19.3 0-35 15.7-35 35s15.7 35 35 35 35-15.7 35-35-15.7-35-35-35zm0 65.9c-17.1 0-30.9-13.8-30.9-30.9s13.8-30.9 30.9-30.9 30.9 13.8 30.9 30.9-13.8 30.9-30.9 30.9zM50 22.8c-14.8 0-26.8 12-26.8 26.8s12 26.8 26.8 26.8 26.8-12 26.8-26.8-12-26.8-26.8-26.8zm0 49.4c-12.5 0-22.7-10.1-22.7-22.7s10.2-22.6 22.7-22.6 22.7 10.1 22.7 22.7-10.2 22.6-22.7 22.6zM50 33.3c-9.1 0-16.5 7.4-16.5 16.5s7.4 16.5 16.5 16.5 16.5-7.4 16.5-16.5-7.4-16.5-16.5-16.5zm0 28.9c-6.8 0-12.4-5.5-12.4-12.4s5.6-12.4 12.4-12.4 12.4 5.6 12.4 12.4-5.6 12.4-12.4 12.4zM50.3 51.2l-2.2-1.9 21.3-24.8c.5-.6 1.4-.7 2-.2.6.5.7 1.4.2 2l-21.3 24.9z"/><circle cx="49.8" cy="49.5" r="3.7"/><circle cx="42.8" cy="27.5" r="5.4"/><circle cx="29.2" cy="65.8" r="5.3"/><circle cx="72.2" cy="58.9" r="5.7"/></g><defs><path id="b" d="M-457.9-3604.6h1280v4450h-1280z"/></defs><clipPath><use xlink:href="#b" overflow="visible"/></clipPath></g></svg>