<svg xmlns="http://www.w3.org/2000/svg" xmlns:xlink="http://www.w3.org/1999/xlink" viewBox="0 0 100 100" enable-background="new 0 0 100 100"><g><defs><path id="a" d="M-955.5-1866.6h1280v2612h-1280z"/></defs><clipPath><use xlink:href="#a" overflow="visible"/></clipPath><defs><path id="b" d="M-901.3-3602.5h1280v4450h-1280z"/></defs><clipPath><use xlink:href="#b" overflow="visible"/></clipPath><path fill="#314753" d="M55.8 64.1h-12.1c-9.3 0-16.8-7-16.8-15.5v-9.5c0-4.7 1.6-8.5 9.2-8.5h27.9c8.3 0 9.2 3.8 9.2 8.5v9c0 8.8-7.8 16-17.4 16zm-19.5-29.1c-5.2-.2-4.6 2.3-4.6 5v8.6c0 6.3 5.5 11.4 12.3 11.4h11.1c7.1 0 12.8-5.3 12.8-11.8v-8.2c0-2.8.8-5.2-4.4-5h-27.2zM40.9 32.7c-2 0-3.7.3-3.7-1.8v-15.5c0-2.1 1.7-3.8 3.7-3.8s3.7 1.7 3.7 3.8v15.5c0 2.1-1.7 1.8-3.7 1.8zM59 32.7c-2 0-3.7.3-3.7-1.8v-15.5c0-2.1 1.7-3.8 3.7-3.8s3.7 1.7 3.7 3.8v15.5c0 2.1-1.7 1.8-3.7 1.8z"/><path stroke="#314753" stroke-width="4" stroke-linecap="round" stroke-miterlimit="10" d="M50.4 63.4s-1.6 5.3 1 12.9c3.7 10.8 18.8 12 18.8 12" fill="none"/></g></svg>