<?xml version="1.0" encoding="utf-8"?>
<!-- Generator: Adobe Illustrator 18.0.0, SVG Export Plug-In . SVG Version: 6.00 Build 0)  -->
<!DOCTYPE svg PUBLIC "-//W3C//DTD SVG 1.1//EN" "http://www.w3.org/Graphics/SVG/1.1/DTD/svg11.dtd">
<svg version="1.1" id="Layer_1" xmlns="http://www.w3.org/2000/svg" xmlns:xlink="http://www.w3.org/1999/xlink" x="0px" y="0px"
	 viewBox="350 250 100 100" enable-background="new 350 250 100 100" xml:space="preserve">
<g>
	
		<linearGradient id="SVGID_1_" gradientUnits="userSpaceOnUse" x1="56.145" y1="550" x2="43.8361" y2="550" gradientTransform="matrix(6 0 0 -6 100 3600)">
		<stop  offset="0" style="stop-color:#A1A1A1"/>
		<stop  offset="1" style="stop-color:#808080"/>
	</linearGradient>
	<path fill="url(#SVGID_1_)" d="M363.8,270.6c-0.6,3.5-0.8,7-0.8,10.6c0,26.6,15,49.7,36.9,61.2c21.9-11.6,36.9-34.7,36.9-61.2
		c0-3.6-0.3-7.2-0.8-10.6c0,0-25.3-3.3-36.1-13C389.8,267.5,363.8,270.6,363.8,270.6L363.8,270.6z"/>
	
		<linearGradient id="SVGID_2_" gradientUnits="userSpaceOnUse" x1="56.145" y1="550" x2="43.8361" y2="550" gradientTransform="matrix(6 0 0 -6 100 3600)">
		<stop  offset="0" style="stop-color:#D8D8D8"/>
		<stop  offset="1" style="stop-color:#A8A8A8"/>
	</linearGradient>
	<path fill="url(#SVGID_2_)" d="M436.1,270.6c0,0-25.3-3.3-36.1-13c-10,9.9-36,13-36,13c-0.6,3.5-0.8,7-0.8,10.6
		c0,26.6,15,49.7,36.9,61.2c21.9-11.6,36.9-34.7,36.9-61.2C436.9,277.5,436.5,274,436.1,270.6L436.1,270.6z M399.8,332.4
		c-16.6-8.9-27.8-26.6-27.8-46.9c0-2.7,0.2-5.5,0.7-8.1c0,0,19.5-2.3,27.2-9.9c8.2,7.4,27.3,9.9,27.3,9.9c0.3,2.6,0.6,5.3,0.6,8.1
		C427.7,305.8,416.4,323.5,399.8,332.4z"/>
</g>
</svg>
