<svg xmlns="http://www.w3.org/2000/svg" viewBox="0 0 100 100" enable-background="new 0 0 100 100"><g><radialGradient cx="50.244" cy="50.504" r="42.5" gradientUnits="userSpaceOnUse"><stop offset="0" stop-color="#A1A1A1"/><stop offset="1" stop-color="#808080"/></radialGradient><radialGradient id="a" cx="50" cy="50" r="35.841" gradientUnits="userSpaceOnUse"><stop offset=".521" stop-color="#A8A8A8"/><stop offset="1" stop-color="#D8D8D8"/></radialGradient><path fill="url(#a)" d="M50 14.2c-19.8 0-35.8 16-35.8 35.8 0 19.8 16 35.8 35.8 35.8s35.8-16 35.8-35.8c0-19.8-16-35.8-35.8-35.8zm0 67.4c-17.5 0-31.6-14.2-31.6-31.6s14.1-31.6 31.6-31.6 31.6 14.1 31.6 31.6-14.1 31.6-31.6 31.6z"/><radialGradient id="b" cx="50" cy="49.575" r="27.408" gradientUnits="userSpaceOnUse"><stop offset=".521" stop-color="#A8A8A8"/><stop offset="1" stop-color="#D8D8D8"/></radialGradient><path fill="url(#b)" d="M50 22.2c-15.1 0-27.4 12.3-27.4 27.4 0 15.1 12.3 27.4 27.4 27.4s27.4-12.3 27.4-27.4c0-15.2-12.3-27.4-27.4-27.4zm0 50.6c-12.8 0-23.2-10.4-23.2-23.2s10.4-23.2 23.2-23.2 23.2 10.4 23.2 23.2-10.4 23.2-23.2 23.2z"/><radialGradient id="c" cx="50" cy="49.788" r="16.867" gradientUnits="userSpaceOnUse"><stop offset=".521" stop-color="#A8A8A8"/><stop offset="1" stop-color="#D8D8D8"/></radialGradient><path fill="url(#c)" d="M50 32.9c-9.3 0-16.9 7.6-16.9 16.9 0 9.3 7.6 16.9 16.9 16.9s16.9-7.6 16.9-16.9c0-9.3-7.6-16.9-16.9-16.9zm0 29.5c-7 0-12.6-5.7-12.6-12.6s5.6-12.7 12.6-12.7 12.6 5.7 12.6 12.6-5.6 12.7-12.6 12.7z"/><linearGradient id="d" gradientUnits="userSpaceOnUse" x1="61.653" y1="37.908" x2="59.596" y2="36.123"><stop offset="0" stop-color="#A1A1A1"/><stop offset="1" stop-color="#808080"/></linearGradient><path fill="url(#d)" d="M50.3 51.2l-2.2-1.9 21.8-25.4c.5-.6 1.5-.7 2.1-.2.6.5.7 1.5.2 2.1l-21.9 25.4z"/><radialGradient id="e" cx="49.794" cy="49.448" r="3.795" gradientUnits="userSpaceOnUse"><stop offset="0" stop-color="#D8D8D8"/><stop offset=".997" stop-color="#A8A8A8"/></radialGradient><circle fill="url(#e)" cx="49.8" cy="49.4" r="3.8"/><linearGradient id="f" gradientUnits="userSpaceOnUse" x1="45.099" y1="27.643" x2="37.625" y2="27.643"><stop offset="0" stop-color="#A1A1A1"/><stop offset="1" stop-color="#808080"/></linearGradient><circle fill="url(#f)" cx="41.3" cy="27.6" r="4.3"/><linearGradient id="g" gradientUnits="userSpaceOnUse" x1="33.809" y1="68.628" x2="26.335" y2="68.628"><stop offset="0" stop-color="#A1A1A1"/><stop offset="1" stop-color="#808080"/></linearGradient><circle fill="url(#g)" cx="30" cy="68.6" r="4.3"/><linearGradient id="h" gradientUnits="userSpaceOnUse" x1="74.894" y1="57.505" x2="67.42" y2="57.505"><stop offset="0" stop-color="#A1A1A1"/><stop offset="1" stop-color="#808080"/></linearGradient><circle fill="url(#h)" cx="71.1" cy="57.5" r="4.3"/></g></svg>