<svg xmlns="http://www.w3.org/2000/svg" xmlns:xlink="http://www.w3.org/1999/xlink" viewBox="0 0 100 100" enable-background="new 0 0 100 100"><g><linearGradient id="a" gradientUnits="userSpaceOnUse" x1="50" y1="79.126" x2="50" y2="57.193"><stop offset="0" stop-color="#D8D8D8"/><stop offset="1" stop-color="#A6A6A6"/></linearGradient><ellipse fill="url(#a)" cx="50" cy="68.2" rx="43.2" ry="11"/><linearGradient id="b" gradientUnits="userSpaceOnUse" x1="50.303" y1="71.439" x2="50.303" y2="26.005"><stop offset="0" stop-color="#B3B3B3"/><stop offset=".999" stop-color="#D8D8D8"/></linearGradient><path fill="url(#b)" d="M85.3 64.3c0 3.5-15.7 7.1-35 7.1s-35-3.8-35-7.1c0-21.2 12.5-38.3 35-38.3 23.7 0 35 17.2 35 38.3z"/><image overflow="visible" opacity=".3" width="56" height="199" xlink:href="8EDFFED3BDB74E8B.png" transform="matrix(.24 0 0 .24 43.288 18.873)"/><linearGradient id="c" gradientUnits="userSpaceOnUse" x1="50" y1="62.42" x2="50" y2="20.873"><stop offset="0" stop-color="#C2C2C2"/><stop offset="1" stop-color="#E9E9E9"/></linearGradient><path fill="url(#c)" d="M53 62.4h-5.8l-.9-41.5h7.4z"/><image overflow="visible" opacity=".3" width="49" height="134" xlink:href="8EDFFED3BDB74E89.png" transform="matrix(.24 0 0 .24 55.198 22.617)"/><linearGradient id="d" gradientUnits="userSpaceOnUse" x1="60.983" y1="50.656" x2="60.983" y2="24.617"><stop offset="0" stop-color="#D8D8D8"/><stop offset="1" stop-color="#E9E9E9"/></linearGradient><path fill="url(#d)" d="M61.4 50.7h-3.2v-26.1l5.6 1z"/><image overflow="visible" opacity=".2" width="49" height="134" xlink:href="8EDFFED3BDB74E8F.png" transform="matrix(.24 0 0 .24 32.923 22.617)"/><linearGradient id="e" gradientUnits="userSpaceOnUse" x1="274.293" y1="50.656" x2="274.293" y2="24.617" gradientTransform="matrix(-1 0 0 1 313.001 0)"><stop offset="0" stop-color="#ccc"/><stop offset="1" stop-color="#E9E9E9"/></linearGradient><path fill="url(#e)" d="M38.2 50.7h3.3v-26.1l-5.6 1z"/></g></svg>