<?xml version="1.0" encoding="utf-8"?>
<!-- Generator: Adobe Illustrator 18.0.0, SVG Export Plug-In . SVG Version: 6.00 Build 0)  -->
<!DOCTYPE svg PUBLIC "-//W3C//DTD SVG 1.1//EN" "http://www.w3.org/Graphics/SVG/1.1/DTD/svg11.dtd">
<svg version="1.1" id="Layer_1" xmlns="http://www.w3.org/2000/svg" xmlns:xlink="http://www.w3.org/1999/xlink" x="0px" y="0px"
	 viewBox="350 250 100 100" enable-background="new 350 250 100 100" xml:space="preserve">
<g>
	
		<radialGradient id="SVGID_1_" cx="50.0043" cy="550.0061" r="5.7995" gradientTransform="matrix(6 0 0 -6 100 3600)" gradientUnits="userSpaceOnUse">
		<stop  offset="0" style="stop-color:#A1A1A1"/>
		<stop  offset="1" style="stop-color:#808080"/>
	</radialGradient>
	<path fill="url(#SVGID_1_)" d="M371.3,320.9c-1.1-1.5-1.4-3.7-1.8-5.9c-0.2-1.6-0.5-3.2-1-4.8c-0.5-1.5-1.2-2.9-1.9-4.3
		c-1.1-2.1-2.1-4.1-2.1-6c0-1.9,1-3.9,2.1-6c0.7-1.4,1.4-2.8,1.9-4.3c0.5-1.6,0.8-3.2,1-4.7c0.4-2.3,0.7-4.5,1.8-5.9
		c1.1-1.5,3.1-2.5,5.1-3.5c1.4-0.7,2.9-1.5,4.2-2.4s2.4-2.1,3.5-3.2c1.6-1.7,3.2-3.2,5-3.8c1.5-0.5,3.7-0.2,6.1,0.2
		c1.6,0.3,3.2,0.5,4.9,0.5c1.7,0,3.3-0.3,4.9-0.5c2.4-0.4,4.6-0.6,6.1-0.2c1.8,0.6,3.4,2.2,5,3.8c1.1,1.1,2.2,2.3,3.5,3.2
		c1.3,1,2.8,1.7,4.2,2.4c2.1,1.1,4,2.1,5.1,3.6c1.1,1.5,1.4,3.6,1.8,5.9c0.2,1.6,0.5,3.2,1,4.7c0.5,1.5,1.2,2.9,1.9,4.3
		c1.1,2.1,2.1,4.1,2.1,6c0,1.9-1,3.9-2.1,6c-0.7,1.4-1.4,2.8-1.9,4.3c-0.5,1.6-0.8,3.2-1,4.8c-0.4,2.3-0.7,4.5-1.8,5.9
		c-0.9,1.4-2.8,2.4-4.9,3.4c-1.4,0.7-2.9,1.5-4.2,2.4c-1.3,0.9-2.4,2.1-3.5,3.2c-1.7,1.7-3.2,3.2-5,3.8c-1.5,0.5-3.7,0.2-6.1-0.2
		c-1.6-0.3-3.2-0.5-4.9-0.5c-1.7,0-3.3,0.3-4.9,0.5c-2.4,0.4-4.6,0.6-6.1,0.2c-1.8-0.6-3.4-2.2-5-3.8c-1.1-1.1-2.2-2.3-3.5-3.2
		c-1.3-1-2.8-1.7-4.2-2.4C374.3,323.4,372.4,322.4,371.3,320.9L371.3,320.9z"/>
	
		<radialGradient id="SVGID_2_" cx="50.0043" cy="550.0083" r="5.7984" gradientTransform="matrix(6 0 0 -6 100 3600)" gradientUnits="userSpaceOnUse">
		<stop  offset="0" style="stop-color:#D8D8D8"/>
		<stop  offset="1" style="stop-color:#A8A8A8"/>
	</radialGradient>
	<path fill="url(#SVGID_2_)" d="M433.4,294c-0.7-1.4-1.4-2.8-1.9-4.3c-0.5-1.6-0.8-3.2-1-4.7c-0.4-2.3-0.7-4.5-1.8-5.9
		c-1.1-1.5-3.1-2.5-5.1-3.6c-1.4-0.7-2.9-1.5-4.2-2.4c-1.3-0.9-2.4-2.1-3.5-3.2c-1.7-1.7-3.2-3.2-5-3.8c-1.5-0.5-3.7-0.2-6.1,0.2
		c-1.6,0.3-3.2,0.5-4.9,0.5c-1.7,0-3.3-0.3-4.9-0.5c-2.4-0.4-4.6-0.6-6.1-0.2c-1.8,0.6-3.4,2.2-5,3.8c-1.1,1.1-2.2,2.3-3.5,3.2
		c-1.3,1-2.8,1.7-4.2,2.4c-2.1,1.1-4,2-5.1,3.5s-1.4,3.6-1.8,5.9c-0.2,1.6-0.5,3.2-1,4.7c-0.5,1.5-1.2,2.9-1.9,4.3
		c-1.1,2.1-2.1,4.1-2.1,6c0,1.9,1,3.9,2.1,6c0.7,1.4,1.4,2.8,1.9,4.3c0.5,1.6,0.8,3.2,1,4.8c0.4,2.3,0.7,4.5,1.8,5.9
		c1.1,1.5,3.1,2.5,5.1,3.5c1.4,0.7,2.9,1.5,4.2,2.4s2.4,2.1,3.5,3.2c1.6,1.7,3.2,3.2,5,3.8c1.5,0.5,3.7,0.2,6.1-0.2
		c1.6-0.3,3.2-0.5,4.9-0.5c1.7,0,3.3,0.3,4.9,0.5c2.4,0.4,4.6,0.6,6.1,0.2c1.8-0.6,3.4-2.2,5-3.8c1.1-1.1,2.2-2.3,3.5-3.2
		c1.3-1,2.8-1.7,4.2-2.4c2.1-1.1,4-2.1,5.1-3.6s1.4-3.6,1.8-5.9c0.2-1.6,0.5-3.2,1-4.8c0.5-1.5,1.2-2.9,1.9-4.3
		c1.1-2.1,2.1-4.1,2.1-6C435.5,298,434.5,296,433.4,294L433.4,294z M428.7,305.1c-0.6,1.2-1.2,2.4-1.7,3.7c-0.4,1.3-0.7,2.7-0.9,4.1
		c-0.3,2-0.6,3.8-1.5,5.1c-0.9,1.3-2.6,2.1-4.4,3c-1.2,0.6-2.5,1.2-3.6,2.1c-1.1,0.8-2.1,1.8-3,2.8c-1.4,1.4-2.8,2.8-4.3,3.3
		c-1.3,0.4-3.2,0.2-5.3-0.1c-1.4-0.2-2.8-0.4-4.2-0.4s-2.9,0.2-4.2,0.4c-2,0.3-4,0.6-5.3,0.1c-1.5-0.5-2.9-1.9-4.3-3.3
		c-0.9-1-1.9-1.9-3-2.8c-1.1-0.8-2.4-1.5-3.6-2.1c-1.8-0.9-3.5-1.8-4.4-3c-0.9-1.3-1.2-3.1-1.5-5.1c-0.2-1.3-0.4-2.7-0.9-4.1
		c-0.4-1.3-1-2.5-1.7-3.7c-0.9-1.8-1.8-3.5-1.8-5.2c0-1.7,0.9-3.4,1.8-5.2c0.6-1.2,1.2-2.4,1.7-3.7c0.4-1.3,0.7-2.7,0.9-4.1
		c0.3-2,0.6-3.8,1.5-5.1c0.9-1.3,2.6-2.1,4.4-3c1.2-0.6,2.5-1.2,3.6-2.1c1.1-0.8,2.1-1.8,3-2.8c1.4-1.4,2.8-2.8,4.3-3.3
		c1.3-0.4,3.2-0.2,5.3,0.1c1.4,0.2,2.8,0.4,4.2,0.4s2.9-0.2,4.2-0.4c2-0.3,4-0.6,5.3-0.1c1.5,0.5,2.9,1.9,4.3,3.3
		c0.9,1,1.9,1.9,3,2.8c1.1,0.8,2.4,1.5,3.6,2.1c1.8,0.9,3.5,1.8,4.4,3.1s1.2,3.1,1.5,5.1c0.2,1.3,0.4,2.7,0.9,4.1
		c0.4,1.3,1,2.5,1.7,3.7c0.9,1.8,1.8,3.5,1.8,5.2C430.5,301.6,429.6,303.3,428.7,305.1z"/>
	<path fill="#D8D8D8" d="M395.5,301.8c-0.5-1-1.4-2.6-2.3-4v15.8h-4v-13.5c-0.9,2.7-2,5.2-3.2,7c-0.4-1.1-1.4-2.9-2-3.9
		c1.8-2.4,3.6-6.8,4.4-10.4h-3.9v-3.7h4.7v-6.6h4v6.6h3.9v3.7h-3.9v0.7c1,1.1,3.8,4.5,4.4,5.3L395.5,301.8L395.5,301.8z M402.6,300
		c-0.9,3.9-2.7,8-4.3,10.6c-0.7-0.6-2.3-1.6-3.2-2.1c1.7-2.3,3.1-5.9,3.9-9.3L402.6,300L402.6,300z M408.2,296.1v12.8
		c0,2-0.3,3.1-1.5,3.8c-1.2,0.7-2.9,0.7-5.1,0.7c-0.1-1.2-0.6-2.9-1.1-4.1c1.3,0.1,2.8,0,3.2,0c0.4,0,0.6-0.1,0.6-0.5v-12.7h-6.6
		v-3.7h18v3.7H408.2L408.2,296.1z M413.7,288.2h-14.6v-3.7h14.7L413.7,288.2L413.7,288.2z M412.5,299.1c1.5,3.4,3,7.7,3.4,10.3
		l-3.6,1.3c-0.4-2.8-1.7-7.2-3.1-10.6L412.5,299.1z"/>
</g>
</svg>
