<svg xmlns="http://www.w3.org/2000/svg" xmlns:xlink="http://www.w3.org/1999/xlink" viewBox="0 0 100 100" enable-background="new 0 0 100 100"><g><defs><path id="a" d="M-1279.8-2866.8h1280v4450h-1280z"/></defs><clipPath><use xlink:href="#a" overflow="visible"/></clipPath><g enable-background="new"><defs><path id="b" d="M18 27.2h63.9v45.7h-63.9z"/></defs><clipPath id="c"><use xlink:href="#b" overflow="visible"/></clipPath><g clip-path="url(#c)"><defs><path id="d" d="M45 56c2.4 2.2 6.2 2.2 8.6 0l25.8-23.4c.1-.1.1.1.2.1-.3-2.1-2.2-3.5-4.6-3.5h-51.3c-2.4 0-4.3 1.4-4.6 3.5.1.1.1 0 .2 0l25.7 23.3z"/></defs><clipPath id="e"><use xlink:href="#d" overflow="visible"/></clipPath><g clip-path="url(#e)"><defs><path id="f" d="M5.9 8.9h88.3v82.2h-88.3z"/></defs><use xlink:href="#f" overflow="visible" fill="#CACACA"/><clipPath id="g"><use xlink:href="#f" overflow="visible"/></clipPath><path clip-path="url(#g)" fill="#CACACA" d="M3.8 14h90.9v58.9h-90.9z"/></g></g><g clip-path="url(#c)"><defs><path id="h" d="M76.1 40.3l-22.5 22.5c-2.4 2.4-6.2 2.4-8.6 0l-22.5-22.5c-1.1-.5-2.7-.8-3.4.6v25.7c0 2.6 2.1 5.3 4.6 5.3h51.1c2.6 0 4.6-2.7 4.6-5.3v-25.7c-.6-1.4-2.2-1.1-3.3-.6z"/></defs><clipPath id="i"><use xlink:href="#h" overflow="visible"/></clipPath><g clip-path="url(#i)"><defs><path id="j" d="M5.9 8.9h88.3v82.2h-88.3z"/></defs><use xlink:href="#j" overflow="visible" fill="#CACACA"/><clipPath id="k"><use xlink:href="#j" overflow="visible"/></clipPath><path clip-path="url(#k)" fill="#CACACA" d="M3.8 24.6h90.9v62.4h-90.9z"/></g></g></g></g></svg>