<svg xmlns="http://www.w3.org/2000/svg" viewBox="0 0 100 100" enable-background="new 0 0 100 100"><g fill="#314753"><circle cx="36.1" cy="22.2" r="6.9"/><circle cx="63" cy="48.6" r="6.9"/><path d="M55.3 81h-7.8c-11.4 0-15.3-8.6-15.3-14.1v-36.900000000000006c.8.6 1.8 1.3 4.1 1.3 2 0 3-.5 4.1-1.3v8.2c0 1.6.4 6.3 7.1 6.3h7.8c-.8 1.2-1.2 2.4-1.2 3.9 0 1.2.4 2.7.8 3.9h-7.5c-2.7 0-4.7-.4-7.1-1.2v16.1c0 1.6.4 6.3 7.1 6.3h7.5c-.4 1.2-.8 2.4-.8 3.5 0 1.7.4 2.8 1.2 4z"/><circle cx="63" cy="77.4" r="6.9"/></g></svg>