<svg xmlns="http://www.w3.org/2000/svg" viewBox="0 0 100 100" enable-background="new 0 0 100 100"><g fill="#314753"><path d="M22.6 78.7c-2.2 0-4.4-.4-6.3-1.2-5.5-2.4-9.3-7.8-9.3-14.1 0-4.7 2.2-9 5.5-11.8l.1-.1 18.4-20.7c1.8-2.8 4.8-4.4 8.1-4.4 5.3 0 9.7 4.3 9.7 9.7 0 1.9-.6 3.4-1.4 4.9l-10.3 27.1c-.2.6-.6 1.3-1 1.9h-.6.6c-2.4 5.1-7.6 8.6-13.5 8.7zm-5.1-4c1.5.6 3.1 1 4.8 1 6.8 0 12.3-5.5 12.3-12.3s-5.5-12.4-12.3-12.4c-3 0-5.7 1-7.8 2.8-.7.6-1.1.9-2 1.9l-.9 1.8c-1 1.8-1.2 4-1.2 6.1 0 4.9 2.9 9.2 7.1 11.1zm4.8-26.7c7.1 0 13.1 4.9 14.8 11.5l7.1-18.7.5-1.1c.8-1.6 1.1-2.5 1.1-3.7 0-3.7-3-6.7-6.7-6.7-2.3 0-4.4 1.2-5.7 3.1l-.1.2-13.8 15.7c.9-.2 1.9-.3 2.8-.3zM77.8 79.2c-5.9 0-11-3.4-13.5-8.4-.1-.2-.2-.4-.3-.7l-.1-.2c-.3-.7-.6-1.3-.8-1.9l-10.5-27.4c-.7-1.7-1.2-2.8-1.2-4.6 0-5.3 4.3-9.7 9.7-9.7 3.3 0 6.3 1.7 8.1 4.4l18.1 21.3c1.4 1.2 2.6 2.5 3.5 4.1l-.3.2.3-.2c1.3 2.3 2 4.9 2 7.6v.6c0 8.2-6.7 14.9-15 14.9zm-10.8-9.7c2.1 3.9 6.2 6.3 10.6 6.3 6.7 0 12.1-5.4 12.1-12-.3-6.4-5.5-11.5-12-11.5-6.6 0-12 5.4-12 12 .1 1.8.5 3.6 1.3 5.2zm-11.2-28.7l7.5 19.5c1.8-6.3 7.6-11 14.5-11 1.2 0 2.4.1 3.6.4l-14.7-17.2c-1.2-2-3.4-3.1-5.7-3.1-3.7 0-6.7 3-6.7 6.7 0 1.2.3 1.9 1 3.4l.5 1.3zM44 50.2l-1.4-2.7c2.1-1.1 6-1.7 8-1.7 2.1 0 5.4.3 7.4 1.6l-.7 2.7c-1.4-.8-4.7-1.3-6.7-1.3-1.9.1-5.2.7-6.6 1.4zm12-5.5c-3.3-1.2-7.1-1.2-10.5-.1l-1-2.8c4-1.4 7.8-1.7 11.7.1l-.2 2.8z"/></g></svg>