<svg xmlns="http://www.w3.org/2000/svg" viewBox="0 0 100 100" enable-background="new 0 0 100 100"><g><path fill="#314753" d="M28 23.7l-2.2 1.2v-5.9l1-1 1 1v4.7h.2zm-.2 7.1l-1 1-1-1v-5.9l2.2 1v4.9h-.2zm6.7-14.2l-.9.9h-4.7l-.9-.9.9-.9h4.7l.9.9zm0 16.2l-.9.9h-4.7l-.9-.9.9-.9h4.7l.9.9zm2.1-7.9l-2.2-1.2v-4.7l1-1 1 1v5.9h.2zm-.1 5.9l-1 1-1-1v-4.9l2.2-1v5.9h-.2z"/><path fill="#314753" d="M18.3 25.1l-2.2-1.5v-5.8l1-1.3 1 1.3v7.3h.2M18.3 32.5h-.2l-1 1.2-1-1.2v-6.2l2.2-1.2"/><path fill="#314753" d="M55.3 23.1l-2.2 1.2v-5.9l1-1 1 1v4.7h.2zm-.1 7.1l-1 1-1-1v-5.9l2.2 1v4.9h-.2zm6.6-14.2l-.9 1h-4.7l-.9-1 .9-.9h4.7l.9.9zm0 16.2l-.9.9h-4.7l-.9-.9.9-.9h4.7l.9.9zm2.2-7.9l-2.2-1.2v-4.7l1-1 1 1v5.9h.2zm-.2 5.9l-1 1-1-1v-4.9l2.2-1v5.9h-.2z"/><path fill="#314753" d="M45.6 24.5l-2.1-1.5v-5.8l1-1.3 1 1.3v7.3h.1M45.6 31.9h-.1l-1 1.2-1-1.2v-6.2l2.1-1.2"/><path fill="#314753" d="M44.8 45.5l-2.2 1.2v-5.9l1-1 1 1v4.7h.2zm-.1 7.2l-1 1-1-1v-5.9l2.2 1v4.9h-.2zm6.6-14.2l-.9.9h-4.7l-.9-.9.9-.9h4.7l.9.9zm0 16.1l-.9.9h-4.7l-.9-.9.9-.9h4.7l.9.9zm2.2-7.9l-2.2-1.2v-4.7l1-1 1 1v5.9h.2zm-.2 6l-1 1-1-1v-4.9l2.2-1v5.9h-.2z"/><path fill="#314753" d="M36 46.9l-2.1-1.5v-5.8l1-1.2 1 1.2v7.3h.1M36 54.3h-.1l-1 1.2-1-1.2v-6.1l2.1-1.3"/><path fill="#314753" d="M17.7 45.5l-2.2 1.2v-5.9l1-1 1 1v4.7h.2zm-.2 7.2l-1 1-1-1v-5.9l2.2 1v4.9h-.2zm6.7-14.2l-.9.9h-4.7l-.9-.9.9-.9h4.7l.9.9zm0 16.1l-.9.9h-4.7l-.9-.9.9-.9h4.7l.9.9zm2.2-7.9l-2.2-1.2v-4.7l1-1 1 1v5.9h.2zm-.2 6l-1 1-1-1v-4.9l2.2-1v5.9h-.2z"/><path fill="#314753" d="M63.4 46.4l-2.2-1.6v-5.8l1-1.2 1 1.2v7.4h.2M63.4 53.7h-.2l-1 1.2-1-1.2v-6.1l2.2-1.2"/><path fill="#314753" d="M29.1 67.8l-2.2 1.2v-5.9l1-1 1 1v4.7h.2zm-.2 7.2l-1 1-1-1v-5.9l2.2 1v4.9h-.2zm6.7-14.2l-.9.9h-4.7l-.9-.9.9-.9h4.7l.9.9zm0 16.1l-.9.9h-4.7l-.9-.9.9-.9h4.7l.9.9zm2.1-7.8l-2.2-1.2v-4.7l1-1 1 1v5.9h.2zm-.1 5.9l-1 1-1-1v-5l2.2-1v6h-.2z"/><path fill="#314753" d="M19.4 69.3l-2.2-1.6v-5.8l1-1.2 1 1.2v7.4h.2M19.4 76.6h-.2l-1 1.2-1-1.2v-6.1l2.2-1.2"/><path fill="#314753" d="M56.4 67.2l-2.2 1.2v-5.9l1-1 1 1v4.7h.2zm-.2 7.2l-1 1-1-1v-5.9l2.2 1v4.9h-.2zm6.7-14.2l-.9.9h-4.7l-.9-.9.9-.9h4.7l.9.9zm0 16.1l-.9.9h-4.7l-.9-.9.9-.9h4.7l.9.9zm2.2-7.8l-2.2-1.2v-4.7l1-1 1 1v5.9h.2zm-.2 5.9l-1 1-1-1v-4.9l2.2-1v5.9h-.2z"/><path fill="#314753" d="M46.7 68.7l-2.1-1.6v-5.8l1-1.2 1 1.2v7.4h.1M46.7 76h-.1l-1 1.2-1-1.2v-6.1l2.1-1.2"/><path fill="#314753" d="M72.1 39.5c-6.5-8.3-18.5-9.8-26.8-3.3-8.3 6.5-9.8 18.5-3.3 26.9 5.7 7.3 15.6 9.3 23.5 5.4 0 0 0 .1.1.1l11.6 14.8c1.4 1.8 4 2.1 5.8.7 1.8-1.4 2.1-4 .7-5.8l-11.7-14.9c0-.1-.1-.1-.1-.1 5.5-6.8 5.8-16.6.2-23.8zm-6.3 23c-6.2 4.8-15.1 3.7-20-2.4s-3.7-15.1 2.4-20 15.1-3.7 20 2.4c4.9 6.2 3.8 15.2-2.4 20z"/></g></svg>