<svg xmlns="http://www.w3.org/2000/svg" viewBox="0 0 100 100" enable-background="new 0 0 100 100"><g><path fill="#314753" d="M53.3 54.1c1.3 1.1 2.8 1.7 4.3 1.7 2.9 0 5.5-2.2 5.7-6.3-.2-4.1-2.8-6.3-5.7-6.3-1.5 0-3 .6-4.3 1.7-.8.7-1.7 1.1-2.6 1.1-1.6 0-3-1.3-3-4v-8c0-1.3-1.1-2.4-2.4-2.4h-7.9c-4.1 0-5-3.2-2.9-5.5 3.4-3.9 1.6-9.7-4.6-10-6.2.3-8.1 6.1-4.6 10 2.1 2.4 1.2 5.5-2.9 5.5h-7.9c-1.3 0-2.4 1.1-2.4 2.4v7.9c0 2.7 1.4 4 3 4 .8 0 1.8-.4 2.6-1.1 1.3-1.1 2.8-1.7 4.3-1.7 2.9 0 5.5 2.2 5.7 6.3-.2 4.1-2.8 6.3-5.7 6.3-1.5 0-3-.6-4.3-1.7-.8-.6-1.7-1-2.6-1-1.6 0-3 1.3-3 4v7.9c0 1.3 1.1 2.4 2.4 2.4h7.9c4.1 0 5 3.2 2.9 5.5-3.4 3.9-1.6 9.7 4.6 10 6.2-.3 8.1-6.1 4.6-10-2.1-2.4-1.2-5.5 2.9-5.5h7.9c1.3 0 2.4-1.1 2.4-2.4v-7.9c0-2.7 1.4-4 3-4 .9 0 1.8.4 2.6 1.1zM68 86.4c-3.3-.1-5.9-1.7-7-4.4-1.2-2.7-.6-5.8 1.4-8.3.8-1 1.1-2.2.6-3.2-.5-1-1.5-1.5-3.1-1.5h-8.6c-1 0-2.7 0-2.8-2.2l-.1-.5c-.2-.7-.2-.7-.2-.9l.3-7.6c0-1 0-3.5 2.5-3.5.9 0 1.8.4 2.6 1.1 1.3 1.3 3 1.9 4.6 1.9 3.5 0 6.4-3.4 6.5-7.8-.2-4.5-3-8.2-6.3-8.2-1.6 0-3.3.7-4.6 1.9-.8.7-1.7 1.1-2.6 1.1-1.9 0-2.8-1-2.8-3.2v-8.8h.1c.4-1.6 1.7-2.7 3.4-2.7h8.3c1.5 0 2.6-.4 2.9-1 .3-.6 0-1.5-.8-2.5-2-2.4-2.6-5.6-1.4-8.3 1.2-2.6 3.7-4.2 7-4.4 3.4.1 5.9 1.7 7.1 4.4 1.2 2.7.6 5.8-1.4 8.3-.8.9-1 1.8-.7 2.4.3.7 1.5 1.2 3.2 1.2h8.3c1.9 0 3.5 1.6 3.5 3.6v7.9c0 3.7-2.1 5.4-4.1 5.4-1.2 0-2.4-.5-3.4-1.5-1.1-1-2.5-1.6-3.8-1.6-2.4 0-4.8 1.9-5 6 .2 4.1 2.6 6 5 6 1.3 0 2.7-.6 3.8-1.6 1-.9 2.2-1.5 3.4-1.5 2.1 0 4.1 1.7 4.1 5.4v8.8c0 .9-.3 2.9-3.5 2.9h-8.3c-1.6 0-2.7.5-3.1 1.4-.4.8-.1 1.8.7 2.8 2 2.4 2.6 5.6 1.4 8.3-1.2 2.6-3.7 4.2-7.1 4.4zm-16.3-19.4h8.3c2.3 0 4.1 1 4.9 2.7.8 1.7.4 3.7-.9 5.3-1.6 1.9-2 4.2-1.1 6.2.8 1.9 2.7 3 5.2 3.2 2.5-.1 4.4-1.3 5.2-3.2.9-2 .4-4.3-1.1-6.2-1.3-1.6-1.7-3.4-1-4.9.8-1.6 2.5-2.5 4.9-2.5h8.3c1.5 0 1.5-.5 1.5-.9v-8.8c0-2.1-.8-3.4-2.1-3.4-.7 0-1.4.3-2 .9-1.5 1.4-3.3 2.1-5.2 2.1-3.2 0-6.8-2.5-7-8 .2-5.6 3.8-8 7-8 1.8 0 3.7.8 5.2 2.1.6.6 1.4.9 2 .9 1.3 0 2.1-1.3 2.1-3.4v-7.9c0-.9-.7-1.6-1.5-1.6h-8.3c-3.4 0-4.6-1.5-5-2.3-.6-1.3-.3-3 1-4.5 1.6-1.9 2-4.2 1.1-6.2-.8-1.9-2.8-3.1-5.3-3.2-2.4.1-4.3 1.3-5.2 3.2-.9 2-.4 4.3 1.1 6.2 1.3 1.6 1.7 3.3 1.1 4.6-.4.8-1.5 2.2-4.8 2.2h-8.1c-.8 0-1.4.7-1.5 1.6v7.9c0 1.2.1 1.2.8 1.2.4 0 .8-.2 1.2-.6 1.7-1.6 3.8-2.5 6-2.5 4.4 0 8.1 4.4 8.3 10.1v.1c-.2 5.5-4 9.8-8.5 9.8-2.1 0-4.3-.9-6-2.5-.4-.4-.8-.6-1.2-.6-.3 0-.5 0-.5 1.6l-.3 7.4.1.5c.2.7.2.7.2.9v.3h.8l.3.2z"/></g></svg>