<svg xmlns="http://www.w3.org/2000/svg" viewBox="0 0 100 100" enable-background="new 0 0 100 100"><g fill="#314753"><path d="M69.9 64.3h-.4c-1.1-.2-1.8-1.3-1.6-2.3 1.1-5.5.9-10 .8-12.7v-.6c0-10.3-8.4-18.5-18.8-18.5-5.7 0-11.3 2.8-14.9 7.4-.7.9-1.9 1-2.8.4-.9-.7-1-1.9-.4-2.8 4.4-5.6 11.1-9 18-9 12.6 0 22.8 10.1 22.8 22.5v.5c.1 2.9.3 7.8-.9 13.7 0 .7-.9 1.4-1.8 1.4zM29.2 54c-1.1 0-2-.9-2-2v-3.4c0-2.9.6-5.9 1.6-8.5.4-1 1.6-1.5 2.6-1.1 1 .4 1.5 1.6 1.1 2.6-.9 2.2-1.4 4.7-1.4 7.1v3.3c.1 1.1-.8 2-1.9 2zM58.5 72.5c-.3 0-.6-.1-.9-.2-1-.5-1.4-1.7-.9-2.7 4.3-8.4 4-16.3 3.8-20.1v-1c0-5.7-4.7-10.3-10.6-10.3-1.6 0-3.2.4-4.6 1.1-1 .5-2.2.1-2.7-.9s-.1-2.2.9-2.7c2-1 4.2-1.5 6.4-1.5 8 0 14.6 6.4 14.6 14.3v.8c.1 3.8.5 12.8-4.3 22.1-.3.7-1 1.1-1.7 1.1zM37.5 49.3h-.2c-1.1-.1-1.9-1.1-1.8-2.2.3-3.1 1.8-6 4-8.3.8-.8 2-.8 2.8-.1.8.8.8 2 0 2.8-1.6 1.7-2.6 3.8-2.9 6-.1 1-.9 1.8-1.9 1.8zM30.2 62c-.9 0-1.7-.6-1.9-1.4-.3-1.1.3-2.2 1.4-2.5l1.8-.5c3.4-1 3.9-2.1 3.9-4.9 0-1.1.9-2 2-2s2 .9 2 2c0 4.8-2 7.3-6.8 8.8l-1.8.5h-.6zM47.7 74c-.4 0-.9-.1-1.3-.4-.9-.7-1-2-.3-2.8 2.5-3 4.2-6.5 5.2-10.2.3-1.1 1.4-1.7 2.4-1.4 1.1.3 1.7 1.4 1.4 2.4-1.1 4.3-3.1 8.3-6 11.7-.2.5-.8.7-1.4.7zM36.2 68.9c-.8 0-1.6-.5-1.9-1.3-.4-1 .2-2.2 1.2-2.6 5.9-2.2 8.9-6.3 8.9-12.4v-4.1c0-3.5 2.6-6.2 5.9-6.2 3.4 0 6.1 2.7 6.1 6 0 .3 0 .8.1 1.3.1 1.1.2 2.5.1 4.2 0 1.1-1 2-2.1 1.9-1.1 0-2-1-1.9-2.1.1-1.5 0-2.8-.1-3.8 0-.6-.1-1.1-.1-1.5 0-1.1-1-2-2.1-2-1.2 0-1.9 1.1-1.9 2.2v4.1c0 7.7-4.1 13.4-11.5 16.1-.3.2-.5.2-.7.2zM50 87.1c-20.5 0-37.1-16.7-37.1-37.1s16.6-37.1 37.1-37.1 37.1 16.6 37.1 37.1-16.6 37.1-37.1 37.1zm0-68.8c-17.5 0-31.7 14.2-31.7 31.7s14.2 31.7 31.7 31.7 31.7-14.2 31.7-31.7-14.2-31.7-31.7-31.7z"/></g></svg>