<svg xmlns="http://www.w3.org/2000/svg" viewBox="0 0 100 100" enable-background="new 0 0 100 100"><g fill="#E9E9E9"><path d="M89.9 52.8s-.1-.5-1.6-.6l-76.4.1c-1.3 0-2 .9-2 .9l19.8-25.2c1.1-1.4 2-2.5 4.3-2.5h32.1c2.3 0 3.2.9 4.4 2.3l19.4 25zM89.4 54.4h-78.8c-1.2 0-2.2 1-2.2 2.2v15.7c0 1.2 1 2.2 2.2 2.2h78.9c1.2 0 2.2-1 2.2-2.2v-15.7c-.1-1.2-1.1-2.2-2.3-2.2zm-20.1 14.1c-1 0-1.8-.8-1.8-1.8s.8-1.8 1.8-1.8 1.8.8 1.8 1.8-.8 1.8-1.8 1.8zm6.6 0c-1 0-1.8-.8-1.8-1.8s.8-1.8 1.8-1.8 1.8.8 1.8 1.8-.8 1.8-1.8 1.8zm6.8 0c-1 0-1.8-.8-1.8-1.8s.8-1.8 1.8-1.8 1.8.8 1.8 1.8-.8 1.8-1.8 1.8z"/></g></svg>