<svg xmlns="http://www.w3.org/2000/svg" viewBox="0 0 100 100" enable-background="new 0 0 100 100"><path fill="#E9E9E9" d="M46.9 31.4c-.3-.1-.6-.2-1-.4l-.4 1.6c.2.1.4.2.6.2.3-.4.5-.9.8-1.4m6.3 12.5l1.2.2v-1.8l-.8-.2c-.1.6-.2 1.2-.4 1.8m-7.5-1.4h-.7l-.1 1.4h.8v-1.4m7.8-9.2l.8-.6-1.3-1.5c-.2.2-.4.4-.6.5.3.5.7 1 1.1 1.6m-3 7.6v-.9l-2.1.3c0 .2 0 .4.1.7h2zm4.7 12.7c-.5.1-1 .1-1.4.2.2.7.4 1.4.6 2.2l.9-.2-.1-2.2m-8.9 1.2c-.8-.6-1.4-1-2.4-1.7v3.4c1-.7 1.6-1.1 2.4-1.7m20.8-19.5c0 .4 0 .9.1 1.3h3.5v-.9l-3.6-.4m-36.8.4l.3 1.4c1.2-.1 2.4-.2 3.6-.4l-.2-1.6c-1.2.1-2.4.3-3.7.6m25.6 36.4v-5.3c-1.6 1.5-2.3 2.1-3.3 3 1.5 1.1 2.2 1.6 3.3 2.3m-13.1-4.5v5c1.3-1.1 2.1-1.8 3-2.7-1-.8-1.7-1.3-3-2.3m6.9-34.1c-1.1 1-1.9 1.7-3.5 3.2h6.5c-1.1-1.2-1.8-1.9-3-3.2m-11.1 3.8v-6.3c-1.4 1.1-2.2 1.7-3.2 2.5 1 1.2 1.8 2.2 3.2 3.8m11.2-7.6c.9-1 1.7-1.9 2.5-2.7-.8-1.5-1.4-2.7-2.4-4.7-1.1 2.1-1.9 3.4-2.7 5 .9.8 1.6 1.4 2.6 2.4m10.9 6.6l1.2 1c1.3-1.1 2.6-2.2 4.4-3.7-2.2-1.3-3.7-2.2-5.6-3.3v6zm-5.7 41.5c-2.5-2.1-4-3.4-5.6-4.7-1.8 1.5-3.3 2.8-5.5 4.7h11.1zm.1-29.1c-2.2-1.5-3.9-2.6-5.7-3.8-1.8 1.2-3.4 2.3-5.6 3.8 2.3 1.5 4 2.7 5.8 4 1.8-1.3 3.3-2.4 5.5-4m.9 13c-2.6-1.8-4.5-3.2-6.6-4.7-2.2 1.7-4.2 3.2-6.5 5 2.5 2 4.5 3.5 6.6 5.2 2.3-1.9 4.1-3.4 6.5-5.5m14.3-39.1c0-.8-.1-1.7-.1-2.4-3.1.6-6.2 1.2-9.7 1.9v4.5c6.1 3.7 12.4 7.4 18.7 11.2v5.4l-5 .6c-.6-1.5-1-2.6-1.4-3.8h-11.4v37.8c1.4.6 2.3.7 2.8 1.2.9.9 2.2 2.3 2 3-.3 1.1-1.9 2.6-2.9 2.6-9.5.2-19.1.2-28.6 0-1 0-2.1-1.7-3.1-2.6l4.1-4.4 1.4.7c.5-12.7 1.1-25.3 1.6-38.3h-11.4c-.2.9-.6 1.9-1 3.3h-5.2c-.1-2-.2-3.6-.3-5.2 6.1-3.5 12-7 18.2-10.6.2-1.8.3-3.6.5-5.6-2.7-.5-5.1-.9-7.9-1.4v8.7l-3.8 1.9v-13.6c5.8-.8 11-1.6 16.1-2.3v.3h14.3c4.1 1.5 11-.5 15.9 4.6v9.9c-1 .5-1.9 1-3.2 1.6-.3-1.3-.5-2.3-.7-3.3 0-1.9 0-3.8.1-5.7"/></svg>