<svg xmlns="http://www.w3.org/2000/svg" viewBox="0 0 100 100" enable-background="new 0 0 100 100"><g><path fill="#E9E9E9" d="M58.6 59.4c0 2.6 2 4.6 4.6 4.6 2.6 0 4.5-1.9 4.5-4.5 0-2.5-1.8-4.4-4.4-4.4-2.7-.1-4.7 1.8-4.7 4.3m-26.6 0c0 2.6 1.8 4.6 4.4 4.6 2.6 0 4.7-1.9 4.8-4.5 0-2.6-1.9-4.4-4.6-4.4-2.6 0-4.5 1.8-4.6 4.3m18-37.9h4.7c1.4 0 2.2-.5 2.1-1.9-.1-.7 0-1.5 0-2.2 0-1.7-.3-2-2.1-2h-7.3c-4.6-.1-4.2 0-4.2 4.3 0 1.2.7 1.9 2 1.9 1.6-.1 3.2-.1 4.8-.1m-.2 1.9h-12.5c-3.4 0-5.4 1.9-5.5 5.2v6.6c0 3 2 5 5 5 8.8.1 17.6 0 26.4 0 2.6 0 4.7-2.1 4.7-4.6v-7c0-3.2-1.9-5.1-5.3-5.1-4.2-.1-8.5-.1-12.8-.1m-15.1-10.2h30.6l.7.3c4.2 1.2 7.7 5 7.7 8.7 0 12.7.1 25.5 0 38.2 0 2.9-1.3 5.4-4.1 7-1.2.7-2.4 1.3-3.8 2 3.9 5.8 7.8 11.4 11.9 17.4h-5.8c-1 0-1.5-.3-2-1-2.4-3.4-4.9-6.7-7.2-10.1-.5-.7-1.1-1-2-1h-21.6c-.9 0-1.4.2-1.9.9-2.4 3.4-4.8 6.8-7.3 10.1-.3.4-.7 1-1 1-2.1.1-4.3 0-6.7 0 4.1-5.9 8-11.6 12-17.3-.6-.3-1-.5-1.5-.7-3.9-1.5-6.3-4.9-6.3-8.9v-37c0-3 1.2-5.4 3.6-7.1 1.3-1.1 3.1-1.7 4.7-2.5"/><path fill="#E9E9E9" d="M30.1 81.3h42v1.5h-42z"/></g></svg>