<svg xmlns="http://www.w3.org/2000/svg" xmlns:xlink="http://www.w3.org/1999/xlink" viewBox="0 0 100 100" enable-background="new 0 0 100 100"><g><defs><path id="a" d="M-626.3-1651.9h1280v2612h-1280z"/></defs><clipPath><use xlink:href="#a" overflow="visible"/></clipPath><path fill="#57798A" d="M23.8 47.5l-17.1 4.9 16.8 5.4 16.6-5.2z"/><path fill="#40585E" d="M6.7 52.4v20.2l16.8 6v-20.8z"/><path fill="#314753" d="M40 52.6v19.9l-16.5 6.1v-20.8z"/><path fill="#57798A" d="M70.3 51.7l-18.8 5.4 18.4 5.9 18.3-5.7z"/><path fill="#40585E" d="M51.5 57.1v22.2l18.4 6.6v-22.9z"/><path fill="#314753" d="M88 57.3l.1 21.8-18.2 6.8v-22.9z"/><path fill="#57798A" d="M28.8 19.1l-11.9 3.4 11.6 3.7 11.5-3.6z"/><path fill="#40585E" d="M16.9 22.5v13.9l11.6 4.2v-14.4z"/><path fill="#314753" d="M39.9 22.6l.1 13.7-11.5 4.3v-14.4z"/><path fill="#57798A" d="M80.6 23.7l-13.4 3.8 13.1 4.3 13.1-4.1z"/><path fill="#40585E" d="M67.2 27.5v15.8l13.1 4.8v-16.3z"/><path fill="#314753" d="M93.2 27.7l.1 15.5-13 4.9v-16.3z"/><path fill="#F49966" d="M51.1 29.5l-13.9 4 13.6 4.4 13.5-4.2z"/><path fill="#F48446" d="M37.2 33.5v16.4l13.6 4.9v-16.9z"/><path fill="#E87C43" d="M64.2 33.7v16l-13.4 5.1v-16.9z"/><path fill="#5F5F5F" d="M51.5 70l-18.1-5.4c-.5-.2-.9-.6-.9-1.2 0-.9.8-1.5 1.7-1.2l17.3 5.2v2.6zM37.6 33.4l-2.9-.8c-.4-.1-.6-.4-.6-.8 0-.6.6-1 1.2-.9l5.4 1.6-3.1.9zM30.2 49.5l13.1-5.6c.5-.3 1.1-.2 1.4.2.6.6.5 1.6-.3 2l-10.8 4.4-3.4-1zM64.2 39.4l7.4-3.1c.4-.2 1-.1 1.3.2.6.6.4 1.5-.3 1.9l-8.4 3.4v-2.4zM62.3 54l-5.2-8c-.3-.4-.4-1 0-1.4.5-.7 1.5-.7 2.1-.1l5.6 8.7-2.5.8z"/></g></svg>