<svg xmlns="http://www.w3.org/2000/svg" xmlns:xlink="http://www.w3.org/1999/xlink" viewBox="0 0 100 100" enable-background="new 0 0 100 100"><g><defs><path id="a" d="M-747.1-1652.1h1280v2612h-1280z"/></defs><clipPath><use xlink:href="#a" overflow="visible"/></clipPath><path fill="#F49966" d="M51 22.6l-30.1 8.6 29.4 9.4 29.3-9z"/><path fill="#F48446" d="M20.9 31.2v35.4l29.4 10.6v-36.6z"/><path fill="#E87C43" d="M79.3 31.6l.1 34.8-29.1 10.8v-36.6z"/><path fill="#415E6B" d="M90.2 73.8l-24.3-19.4-4-5.9-.8.2c-1.3 2.7-.7 6.4 1.3 8.9 2.2 2.6 5.9 3.7 8.9 2.7l14 16.7c.9 1.1 2.6 1.3 3.8.4l.2-.2c1.1-.9 1.2-2.5.9-3.4zM67.2 44.2v1.7l3 3.5-1.4 4.2 1.2-.6 1.3-3.8z"/><path fill="#314753" d="M89.6 72.5l-13.6-16.5c1.6-2.8 1.4-6.4-.8-9.1-2-2.5-5.3-3.4-8.2-2.7l4.1 5-1.2 3.8-4 .5-4.1-5c-1.3 2.7-1 6.1 1 8.5 2.2 2.6 5.7 3.5 8.7 2.5l13.6 16.5c.9 1.1 2.6 1.3 3.8.4l.2-.2c1.3-.9 1.4-2.6.5-3.7z"/></g></svg>